<svg xmlns="http://www.w3.org/2000/svg" xmlns:xlink="http://www.w3.org/1999/xlink" width="400" height="456"
     viewBox="0 0 400 456">
  <defs>
    <path id="a"
          d="M6.41 0h387.18c2.23 0 3.037.232 3.852.668a4.543 4.543 0 0 1 1.89 1.89c.436.815.668 1.623.668 3.852v443.18c0 2.23-.232 3.037-.668 3.852a4.543 4.543 0 0 1-1.89 1.89c-.815.436-1.623.668-3.852.668H6.41c-2.23 0-3.037-.232-3.852-.668a4.543 4.543 0 0 1-1.89-1.89C.232 452.627 0 451.82 0 449.59V6.41c0-2.23.232-3.037.668-3.852a4.543 4.543 0 0 1 1.89-1.89C3.373.232 4.18 0 6.41 0z"/>
    <circle id="c" cx="258.5" cy="258.5" r="258.5"/>
    <path id="e" d="M0 .377h115.897v125.392H0z"/>
  </defs>
  <g fill="none" fill-rule="evenodd">
    <mask id="b" fill="#fff">
      <use xlink:href="#a"/>
    </mask>
    <use fill="#FFF" xlink:href="#a"/>
    <g mask="url(#b)">
      <g transform="translate(-59 -299)">
        <mask id="d" fill="#fff">
          <use xlink:href="#c"/>
        </mask>
        <use fill="#E46F18" xlink:href="#c"/>
        <g fill="#FFC400" mask="url(#d)" opacity=".2">
          <path
            d="M61.971 434.002l.002-.002-.003-.002-.001.001zM69.667 355.604l-35.892 35.57 35.892 35.571 5.983-5.929.002.002-11.966 11.858L45.74 414.89l-5.983-5.93-17.947-17.785 41.876-41.5z"/>
          <path d="M44.317 391.617l30.894-30.021 6.178 6.003-24.716 24.018 24.716 24.018-6.178 6.003z"/>
          <path
            d="M68.15 391.617l17.21-17.66 5.739 5.888-11.474 11.772L91.1 403.389l-5.738 5.888zM92.864 391.617l6.179-6.18 6.178 6.18-6.178 6.18zM61.97 516.118h.003l-.003-.002-.001.001zM39.756 491.961l5.983 5.929 17.947 17.786 11.966-11.858-.001-.002-5.983 5.93-35.893-35.57 35.893-35.57 5.983 5.929.001-.002-11.966-11.857-41.877 41.5z"/>
          <path d="M44.317 473.734l30.894-30.021 6.178 6.003-24.716 24.018 24.716 24.018-6.178 6.003z"/>
          <path
            d="M68.15 473.734l17.21-17.66 5.739 5.888-11.474 11.772L91.1 485.506l-5.738 5.888zM92.864 473.734l6.179-6.18 6.178 6.18-6.178 6.18zM49.613 433.117l6.179-6.18 6.179 6.18-6.179 6.18zM121.11 407.51H84.036v-5.297h30.892zM108.752 396.915H96.395v-5.298h6.176zM131.701 421.638H73.445v-5.298h52.43z"/>
          <path
            d="M121.11 457.84H84.036v5.298h30.893zM108.752 469.32H96.395v5.297h6.178zM131.701 444.596H73.445v5.298h52.43zM143.176 433.117h-82.97v-5.298h77.155zM137.368 439.298H60.205V434h82.965l.006.006zM227.913 434.002l.001-.002-.003-.002-.001.001zM233.843 355.604l-35.892 35.57 35.892 35.571 5.983-5.929.002.002-11.966 11.858-17.947-17.786-5.983-5.93-17.947-17.785 41.876-41.5z"/>
          <path d="M208.493 391.617l30.894-30.021 6.178 6.003-24.716 24.018 24.716 24.018-6.178 6.003z"/>
          <path
            d="M234.09 391.617l17.212-17.66 5.738 5.888-11.473 11.772 11.473 11.772-5.738 5.888zM257.923 391.617l6.178-6.18 6.179 6.18-6.18 6.18zM227.91 516.117l.001.001h.003l-.002-.002-.002.001zM203.932 491.961l5.983 5.929 17.947 17.786 11.966-11.858-.002-.002-5.983 5.93-35.892-35.57 35.892-35.57 5.983 5.929.002-.002-11.966-11.857-41.877 41.5z"/>
          <path d="M208.493 473.734l30.894-30.021 6.178 6.003-24.716 24.018 24.716 24.018-6.178 6.003z"/>
          <path
            d="M234.09 473.734l17.212-17.66 5.738 5.888-11.473 11.772 11.473 11.772-5.738 5.888zM257.923 473.734l6.178-6.18 6.179 6.18-6.18 6.18zM186.427 473.736l.002-.002-.003-.002-.002.001z"/>
          <path
            d="M192.358 397.106l-35.893 35.57 35.893 35.57 5.983-5.93.002.001-11.966 11.859-17.948-17.786-5.982-5.93-17.947-17.784 41.877-41.5 11.966 11.858-.002.001z"/>
          <path d="M167.008 433.117l30.894-30.021 6.178 6.003-24.716 24.018 24.716 24.018-6.178 6.003z"/>
          <path
            d="M192.605 433.117l17.212-17.66 5.738 5.888-11.474 11.772 11.474 11.772-5.738 5.888zM215.555 433.117l6.178-6.18 6.179 6.18-6.179 6.18zM287.05 407.51H249.98v-5.297h30.892zM274.693 396.915h-12.357v-5.298h6.175zM297.643 421.638h-58.256v-5.298h52.429zM287.05 457.84H249.98v5.298h30.893zM274.693 469.32h-12.357v5.297h6.179zM297.643 444.596h-58.256v5.298h52.43z"/>
          <path
            d="M310 433.117h-82.97v-5.298h77.156zM304.192 439.298H227.03V434h82.965l.006.006zM145.825 516.119l.001-.001-.003-.003-.001.002zM121.844 491.96l5.983 5.93 17.947 17.786 11.966-11.859-.002-.001-5.983 5.93-35.892-35.571 35.892-35.57-5.983-5.93-41.875 41.5z"/>
          <path d="M127.288 473.734l30.894-30.021 6.178 6.003-24.716 24.018 24.716 24.018-6.178 6.003z"/>
          <path d="M153.768 473.734l17.211-17.66 5.738 5.889-11.473 11.771 11.473 11.772-5.738 5.888z"/>
          <path
            d="M173.187 473.734l6.178-6.18 6.179 6.18-6.179 6.18zM145.825 516.117h-.001zM61.974 514.351h11.964l-.002-.002 35.893-34.054 5.983 5.676.001-.001-11.965-11.353-41.877 39.732zM84.482 516.559h12.356l-.003-.003 24.716-23.31-6.178-5.826-30.894 29.136zM109.637 515.234h11.476l-.002-.002 11.473-11.77-5.738-5.888-17.211 17.658zM132.587 514.351h12.351l.003-.002-6.178-5.296-6.179 5.296zM204.963 493.16H167.89v-5.298h30.892z"/>
          <path
            d="M192.605 479.915h-12.357v-5.298h6.175zM215.555 504.638h-58.256v-5.298h52.429zM144.941 516.117h82.971l-5.815-5.298h-77.156z"/>
          <path d="M144.941 514.354h82.971l-.006-.006h-82.965zM-21 515.234h82.97l-5.926-5.298H-21z"/>
          <path
            d="M-19.235 514.354h82.971l-.006-.006h-82.965zM309.118 516.119l.002-.001-.003-.003-.002.002zM286.861 491.96l5.675 5.93 17.023 17.786v-11.858l-28.371-29.643 28.37-29.643v-11.856l-39.72 41.499z"/>
          <path
            d="M294.112 474.617l17.653-17.66v11.772l-5.886 5.888 5.886 5.887v11.773zM310.883 516.117zM226.15 514.351h11.964l-.002-.002 35.893-34.054 5.983 5.676.001-.001-11.965-11.353-41.877 39.732zM249.54 516.559h12.356l-.002-.003 24.715-23.31-6.178-5.826-30.894 29.136zM275.578 515.234h11.477l-.003-.002 11.473-11.77-5.738-5.888-17.211 17.658zM296.763 514.351h12.351l.003-.002-6.179-5.296-6.178 5.296z"/>
          <path
            d="M308.676 515.676v-5.298h-.883v5.298zM309.559 515.678v-.005h-.883v.005zM61.971 351.885l.002-.002-.003-.002-.001.001zM69.667 274.372l-35.892 35.57 35.892 35.569 5.983-5.93.002.002-11.966 11.858-17.947-17.786-5.983-5.928L21.81 309.94l41.877-41.5L75.652 280.3l-.002.002z"/>
          <path d="M44.317 310.383l30.894-30.021 6.178 6.003-24.716 24.018 24.716 24.018-6.178 6.003z"/>
          <path
            d="M68.15 308.617l17.21-17.66 5.739 5.888-11.474 11.772L91.1 320.389l-5.738 5.888zM92.864 308.617l6.179-6.18 6.178 6.18-6.178 6.18z"/>
          <path
            d="M108.752 304.202H96.395v5.298h6.178zM227.91 351.882l.003.003.001-.001-.002-.003-.002.001zM233.843 274.372l-35.892 35.57 35.892 35.569 5.983-5.93.002.002-11.966 11.858-17.947-17.786-5.983-5.928-17.947-17.786 41.877-41.5 11.966 11.858-.002.002z"/>
          <path d="M208.493 310.383l30.894-30.021 6.178 6.003-24.716 24.018 24.716 24.018-6.178 6.003z"/>
          <path
            d="M234.09 308.617l17.212-17.66 5.738 5.888-11.473 11.772 11.473 11.772-5.738 5.888zM257.923 308.617l6.178-6.18 6.179 6.18-6.18 6.18zM186.427 310.385l.002-.001-.003-.003-.002.002z"/>
          <path
            d="M192.358 233.755l-35.893 35.57 35.893 35.57 5.983-5.93.002.002-11.966 11.857-17.948-17.785-5.982-5.93-17.947-17.784 41.877-41.5 11.966 11.857-.002.002zM274.693 304.202h-12.357v5.298h6.179zM145.825 351.885l.001-.001-.003-.003-.001.001z"/>
          <path
            d="M151.755 274.37l-35.892 35.57 35.892 35.57 5.983-5.928.002.001-11.966 11.858-17.947-17.786-5.983-5.929-17.947-17.785 41.876-41.5z"/>
          <path d="M127.288 310.383l30.894-30.021 6.178 6.003-24.716 24.018L164.36 334.4l-6.178 6.003z"/>
          <path d="M153.768 308.617l17.211-17.66 5.738 5.888-11.473 11.772 11.473 11.772-5.738 5.888z"/>
          <path
            d="M173.187 308.617l6.178-6.18 6.179 6.18-6.179 6.18zM145.822 434l.003.002.001-.001-.002-.003-.002.001zM151.755 355.606l-35.892 35.57 35.892 35.57 5.983-5.93.002.002-11.966 11.858-17.947-17.786-5.983-5.93-17.947-17.784 41.877-41.5 11.966 11.858-.002.001z"/>
          <path d="M127.288 391.617l30.894-30.021 6.178 6.003-24.716 24.018 24.716 24.018-6.178 6.003z"/>
          <path d="M153.768 391.617l17.211-17.66 5.738 5.888-11.473 11.772 11.473 11.772-5.738 5.888z"/>
          <path
            d="M173.187 391.617l6.178-6.18 6.179 6.18-6.179 6.18zM103.457 391.619l.001-.002-.003-.002-.001.002zM111.153 315.872l-35.893 35.57 35.893 35.569 5.983-5.93.001.002-11.965 11.858-17.948-17.786-5.983-5.928-17.946-17.786 41.877-41.5 11.965 11.858-.001.002z"/>
          <path d="M84.92 352.766l30.894-30.021 6.178 6.003-24.716 24.018 24.716 24.018-6.178 6.003z"/>
          <path
            d="M109.635 351.883l17.211-17.66 5.738 5.888-11.473 11.772 11.473 11.772-5.738 5.888zM134.35 351.883l6.178-6.18 6.179 6.18-6.18 6.18zM204.963 326.277H167.89v-5.298h30.892zM192.605 314.798h-12.357V309.5h6.175zM215.555 339.521h-58.256v-5.298h52.429zM204.963 375.723H167.89v5.298h30.893zM192.605 387.202h-12.357v5.298h6.179zM215.555 362.479h-58.256v5.298h52.43zM227.912 350.117h-82.97v-5.298h77.156z"/>
          <path
            d="M222.104 356.298h-77.163V351h82.965l.006.006zM-21 349.234h82.97l-5.926-5.298H-21zM-21 358.064h77.05l5.92-5.292-.006-.006H-21zM309.118 350.119l.002-.001-.003-.003-.002.001zM309.559 279.415l-28.371 29.643 28.37 29.643v11.858l-17.022-17.787-5.675-5.928-17.022-17.786 39.718-41.5.002.002z"/>
          <path
            d="M294.112 309.5l17.653-17.66v11.773l-5.886 5.887 5.886 5.887v11.773zM310.88 434l.004.002V434l-.002-.003-.002.001zM309.559 363.299l-28.371 29.642 28.37 29.643v11.857l-17.022-17.785-5.675-5.93-17.022-17.785 39.72-41.5z"/>
          <path
            d="M294.112 392.5l17.653-17.66v11.773l-5.886 5.887 5.886 5.887v11.773zM267.633 391.619l.001-.002-.003-.002-.001.002zM275.329 315.872l-35.893 35.57 35.893 35.569 5.983-5.93.001.002-11.965 11.858-17.948-17.786-5.982-5.928-17.947-17.786 41.877-41.5 11.965 11.858-.001.002z"/>
          <path d="M249.979 352.766l30.894-30.021 6.178 6.003-24.716 24.018 24.716 24.018-6.178 6.003z"/>
          <path d="M275.576 351.883l17.211-17.66 5.738 5.888-11.473 11.772 11.473 11.772-5.738 5.888z"/>
          <path d="M298.525 351.883l6.179-6.18 6.179 6.18-6.18 6.18z"/>
          <path d="M308.676 351.441v-5.297h-.883v5.297z"/>
          <path
            d="M308.676 355.856v-5.297h-.883v5.297zM392.089 434.002l.001-.002-.002-.002-.002.001zM400.668 355.604l-35.893 35.57 35.893 35.571 5.982-5.929.002.002-11.965 11.858-17.948-17.786-5.983-5.93-17.947-17.785 41.876-41.5z"/>
          <path d="M374.435 391.617l30.893-30.021 6.179 6.003-24.716 24.018 24.716 24.018-6.179 6.003z"/>
          <path
            d="M398.267 391.617l17.21-17.66 5.739 5.888-11.473 11.772 11.473 11.772-5.738 5.888zM422.099 391.617l6.178-6.18 6.179 6.18-6.179 6.18zM392.088 516.118h.002l-.002-.002-.002.001zM370.757 491.961l5.982 5.929 17.948 17.786 11.965-11.858-.001-.002-5.983 5.93-35.893-35.57 35.893-35.57 5.983 5.929.001-.002-11.965-11.857-41.878 41.5z"/>
          <path d="M374.435 473.734l30.893-30.021 6.179 6.003-24.716 24.018 24.716 24.018-6.179 6.003z"/>
          <path
            d="M398.267 473.734l17.21-17.66 5.739 5.888-11.473 11.772 11.473 11.772-5.738 5.888zM422.099 473.734l6.178-6.18 6.179 6.18-6.179 6.18zM352.369 473.736l.001-.002-.003-.002-.001.001zM357.417 397.106l-35.893 35.57 35.893 35.57 5.983-5.93.001.001-11.965 11.859-17.948-17.786-5.982-5.93-17.947-17.784 41.877-41.5 11.965 11.858-.001.001z"/>
          <path d="M332.95 433.117l30.893-30.021 6.178 6.003-24.715 24.018 24.715 24.018-6.178 6.003z"/>
          <path d="M358.547 433.117l17.21-17.66 5.739 5.888-11.474 11.772 11.474 11.772-5.738 5.888z"/>
          <path
            d="M380.613 433.117l6.179-6.18 6.179 6.18-6.18 6.18zM452.11 407.51h-37.073v-5.297h30.893zM439.752 396.915h-12.357v-5.298h6.176zM462.701 421.638h-58.256v-5.298h52.43zM452.11 457.84h-37.073v5.298h30.894zM439.752 469.32h-12.357v5.297h6.178zM462.701 444.596h-58.256v5.298h52.43z"/>
          <path d="M475.059 433.117h-82.971v-5.298h77.156zM469.25 439.298h-77.162V434h82.965l.006.006z"/>
          <path
            d="M451.961 491.96l5.983 5.93 17.948 17.786 11.965-11.859-.002-.001-5.982 5.93-35.893-35.571 35.893-35.57-5.983-5.93-41.875 41.5z"/>
          <path
            d="M455.64 473.734l30.894-30.021 6.178 6.003-24.716 24.018 24.716 24.018-6.178 6.003zM392.973 514.351h11.966l-.003-.002 35.893-34.054 5.983 5.676.001-.001-11.965-11.353-41.877 39.732zM414.599 516.559h12.356l-.002-.003 24.715-23.31-6.178-5.826-30.894 29.136zM439.754 515.234h11.476l-.002-.002 11.473-11.77-5.738-5.888-17.211 17.658zM309.117 444.089l6.177-5.928-6.177-5.927v11.855zm0 71.145l12.358-11.858-.002-.002-6.179 5.93-6.177-5.928v11.858z"/>
          <path
            d="M309.117 480.622l17.654 18.013-5.885 6.003-11.769-12.008v-12.008zm0-24.018l11.77-12.008 5.884 6.003-17.654 18.013v-12.008zM317.061 473.734l17.212-17.66 5.738 5.889-11.474 11.771 11.474 11.772-5.738 5.888z"/>
          <path
            d="M340.01 473.734l6.18-6.18 6.178 6.18-6.179 6.18zM309.117 516.117zM370.021 493.16H332.95v-5.298h30.893z"/>
          <path
            d="M357.664 479.915h-12.357v-5.298h6.175zM380.613 504.638h-58.256v-5.298h52.43zM310 515.234h82.97l-5.926-5.298H310z"/>
          <path
            d="M310.883 514.354h82.97l-.005-.006h-82.965zM392.089 350.119l.001-.002-.002-.002-.002.001zM400.668 274.372l-35.893 35.57 35.893 35.569 5.982-5.93.002.002-11.965 11.858-17.948-17.786-5.983-5.928-17.947-17.786 41.878-41.5 11.965 11.858-.002.002z"/>
          <path d="M374.435 310.383l30.893-30.021 6.179 6.003-24.716 24.018 24.716 24.018-6.179 6.003z"/>
          <path
            d="M398.267 308.617l17.21-17.66 5.739 5.888-11.473 11.772 11.473 11.772-5.738 5.888zM422.099 308.617l6.178-6.18 6.179 6.18-6.179 6.18zM352.369 310.385l.001-.001-.003-.003-.001.002zM357.417 233.755l-35.893 35.57 35.893 35.57 5.983-5.93.001.002-11.965 11.857-17.948-17.785-5.982-5.93-17.947-17.784 41.877-41.5 11.965 11.857-.001.002z"/>
          <path
            d="M439.752 304.202h-12.357v5.298h6.178zM481.873 274.37l-35.893 35.57 35.893 35.57 5.983-5.928.001.001-11.965 11.858-17.948-17.786-5.983-5.929-17.946-17.785 41.875-41.5z"/>
          <path
            d="M455.64 310.383l30.894-30.021 6.178 6.003-24.716 24.018 24.716 24.018-6.178 6.003zM481.873 355.606l-35.893 35.57 35.893 35.57 5.983-5.93.001.002-11.965 11.858-17.948-17.786-5.983-5.93-17.946-17.784 41.877-41.5 11.965 11.858-.001.001z"/>
          <path
            d="M455.64 391.617l30.894-30.021 6.178 6.003-24.716 24.018 24.716 24.018-6.178 6.003zM433.574 391.619l.002-.002-.003-.002-.002.002zM440.387 314.989l-35.893 35.57 35.893 35.569 5.983-5.93.002.002-11.965 11.859-17.949-17.787-5.982-5.928-17.947-17.786 41.878-41.5 11.965 11.858-.002.002z"/>
          <path d="M415.92 352.766l30.894-30.021 6.178 6.003-24.716 24.018 24.716 24.018-6.178 6.003z"/>
          <path
            d="M440.635 350.117l17.21-17.66 5.739 5.888-11.474 11.772 11.474 11.772-5.738 5.888zM309.117 338.259l6.177 5.927 6.179-5.929.002.002-12.358 11.858v-11.858zm6.177-65.214l-6.177 5.927v-11.855l6.177 5.928z"/>
          <path
            d="M309.117 315.505l17.654 18.013-5.885 6.003-11.769-12.009v-12.007zm0-24.018l11.77-12.008 5.884 6.003-17.654 18.013v-12.008zM317.061 308.617l17.212-17.66 5.738 5.888-11.474 11.772 11.474 11.772-5.738 5.888z"/>
          <path
            d="M340.01 308.617l6.18-6.18 6.178 6.18-6.179 6.18zM309.117 421.26l6.177 5.927 6.179-5.929.002.002-12.358 11.857V421.26zm6.177-65.212l-6.177 5.926v-11.857l12.358 11.858-.002.001-6.179-5.928z"/>
          <path
            d="M309.117 398.505l17.654 18.013-5.885 6.003-11.769-12.009v-12.007zm0-24.018l11.77-12.008 5.884 6.003-17.654 18.013v-12.008zM317.061 391.617l17.212-17.66 5.738 5.888-11.474 11.772 11.474 11.772-5.738 5.888z"/>
          <path
            d="M340.01 391.617l6.18-6.18 6.178 6.18-6.179 6.18zM370.021 326.277H332.95v-5.298h30.893zM357.664 314.798h-12.357V309.5h6.175zM380.613 339.521h-58.256v-5.298h52.43zM370.021 375.723H332.95v5.298h30.894z"/>
          <path
            d="M357.664 387.202h-12.357v5.298h6.178zM380.613 362.479h-58.256v5.298h52.43zM392.97 349.234H310v-5.298h77.043zM387.05 358.064H310v-5.298h82.965l.006.006z"/>
        </g>
        <g mask="url(#d)">
          <path fill="#E95C13"
                d="M310.282 391.232s9.008-3.16 16.61-7.924c7.604-4.763 32.49-15.751 38.057-7.26-2.507 8.707-5.582 20.393-5.582 20.393l-2.738 2.687c-18.841 2.823-29.49 4.62-39.728 10.128l-6.619-18.024z"/>
          <path fill="#E65E16"
                d="M115.39 369.15l36.735 8.207c4.95 1.107 8.654 4.822 9.404 9.433 1.267 7.783 3.225 15.47-1.007 25.746-1.589 3.856-3.811 7.286-6.779 7.82-7.226 1.302-27.477 4.717-36.917 1.599-9.44-3.12-14.285-3.549-14.646-16.785-.361-13.236-1.909-25.537.886-30.138 2.795-4.601 5.49-7.41 12.325-5.883"/>
          <path fill="#FF6D00"
                d="M103.072 374.83c-2.804 4.453-1.252 16.36-.89 29.17.235 8.3 2.359 11.397 6.4 13.37 7.77 1.746 9.728-5.343 9.813-9.663.48-24.276 3.847-34.53-2.957-38.571-6.858-1.478-9.562 1.24-12.366 5.694"/>
          <g transform="translate(79 423.23)">
            <mask id="f" fill="#fff">
              <use xlink:href="#e"/>
            </mask>
            <path fill="#FF6D00"
                  d="M21.866 3.486s1.987-6.348-8.025-.902C3.83 8.029-.28 11.352.014 15.29.31 19.23 2.347 30.392 14.142 50.45c11.796 20.057 32.827 61.36 42.092 70.828 9.264 9.468 52.811 1.757 59.663-3.017C85.052 85.733 21.866 3.486 21.866 3.486"
                  mask="url(#f)"/>
          </g>
          <path fill="#E46F18" d="M116.846 432.648l-4.622.365-.985-13.975 4.755 1.51z"/>
          <path fill="#E65E16"
                d="M131.17 424.744s-25.136-4.297-32.928-2.449c-7.791 1.849 31.108 47.02 46.765 71.284 15.657 24.265 21.38 43.16 27.736 45.745 6.354 2.584 20.064 4.361 27.675.238 7.612-4.124-69.248-114.818-69.248-114.818"/>
          <path fill="#C34D0F"
                d="M127.787 459.17c1.767 3.05 50.23 73.96 69.993 81.445a16.425 16.425 0 0 0 2.64-1.122c6.29-3.407-45.203-79.692-63.124-105.864l-10.526-7.603c-3.48.377-11.424 11.654 1.017 33.144"
                opacity=".23"/>
          <path fill="#E98013" d="M153.29 407.25l33.642-3.583-.754 6.987z"/>
          <path fill="#FFBE8D"
                d="M212.009 416.846c12.241 7.253 38.639 6.443 51.602.357 12.963-6.086 47.502-26.113 47.502-26.113l10.383 18.229s-36.66 30.062-46.1 34.558c-9.44 4.496-48.604 8.908-48.604 8.908 23.572 34.12 35.735 58.245 35.04 58.01-5.046 1.034-26.591 10.325-37.717 18.551-35.947 26.58-33.885 1.122-55.152-24.61-9.914-11.996-25.42-31.984-36.666-42.622-11.247-10.638 1.552-46.536 19.013-47.825 17.462-1.29 39.611-6.489 39.611-6.489s8.847 1.793 21.088 9.046z"/>
          <path fill="#FF6D00"
                d="M136.32 463.861c.039-.087.043.263.13.748 3.36 3.5 8.504 9.956 11.131 12.504 2.628 2.548 33.509 23.163 64.95 12.11 20.244-7.115 22.35-7.336 19.783-28.262a680.64 680.64 0 0 0-3.355-5.005c-17.073-11.165-92.676 7.992-92.638 7.905z"
                opacity=".2"/>
          <path fill="#E95C13"
                d="M152.133 394.754c3.509 7.774 3.374 16.07 3.374 16.07l24.45 9.612 8.599-11.878-3.103-5.729c5.087-.517 8.841-4.968 8.46-10.046-.033-.454-1.979-26.41-1.955-26.1-1.07-14.268-12.404-24.315-20.005-22.989L153.008 347c-7.328 1.28-18.28 12.554-11.724 32.363 4.896 11.438 7.34 7.616 10.85 15.39z"/>
          <path fill="#C34D0F"
                d="M153.623 407.859l-1.734 5.796 35.043 12.37-.747-14.693zM186.932 410.747l5.606 11.086-1.065-14.985-3.802-3.181zM185.455 331s7.618 16.002-11.75 18.336c-19.369 2.334-18.746 3.932-19.476 11.071-.73 7.139 4.552 12.057-2.795 20.575-.894 6.14-1.436 7.951-.058 14.3-5.887-4.873-14.062-9.7-14.87-27.351-.806-17.65 11.77-26.56 27.173-27.965 15.403-1.405 19.405-5.247 21.776-8.966"/>
          <path fill="#DA5611"
                d="M170.554 404.777c12.536-.18 14.978-1.917 14.978-1.917l1.917 3.7s-13.4 4.241-21.441 1.279c-9.244-3.405-9.914-16.75-9.914-16.75s1.925 13.867 14.46 13.688z"/>
          <path fill="#C34D0F"
                d="M152.26 406.462l-1.773 6.435 34.232 10.334.81-12.914zM186.932 412.356l5.606 9.477-1.617-13.492-3.34-3.277z"/>
          <path fill="#FF8B34"
                d="M325.071 463.035c2.676 15.734 7.94-1.97 11.637-17.445l4.412 2.367c-4.181 17.642-2.404 11.999-7.793 24.748l-5.207 5.608s-5.262 1.523-5.222.405c.039-1.119 2.173-15.683 2.173-15.683"/>
          <path fill="#C34D0F" d="M375.623 416.244l-13.478 44.527 16.508 4.383 12.928-45.162z"/>
          <path fill="#E65E16" d="M362.32 459.564l-35.217-10.874 12.808-43.626 36.251 10.13z"/>
          <path fill="#FF6D00" d="M338.316 412.267l54.667 8.169-51.252-18.167z"/>
          <path fill="#E65E16"
                d="M363.43 531.619c-35.598-8.804-118.513-4.034-168.088 8.996 20.865-21.223 50.753-30.981 65.858-30.738 27.769-.322 105.77 13.53 102.23 21.742"/>
          <path fill="#E95C13"
                d="M149.453 385.306c-5.533 1.966-10.508-11.608-4.94-13.586 5.533-1.966 10.508 11.608 4.94 13.586"/>
          <path fill="#C34D0F" d="M352.133 407.859l-11.013-1.942 11.611-32.196 6.372-3.593.239 3.428z"/>
          <path fill="#E95C13"
                d="M151.898 388.178c-3.161 1.18-6.004-6.964-2.822-8.151 3.162-1.18 6.004 6.965 2.822 8.151"/>
          <path fill="#FF6D00"
                d="M326.359 402.983c-5.805 20.458-26.162 87.33-5.88 82.925 6.75-1.467 10.094-6.475 12.44-9.886 1.67-2.426 6.06-14.595 8.323-21.039-.76-.301-1.408-.442-1.856-.587-1.847 5.939-5.517 17.18-7.682 20.198-3.029 4.223-7.131 6.438-7.004.535.127-5.902 18.97-75.24 23.33-84.128 11.306-23.055 12.723-25.896 3.06 18.16l1.584.542c6.01-8.342 10.883-34.028 6.196-40.58-2.064-2.884-7.158-6.677-13.084-3.183-5.924 3.495-16.456 26.572-19.427 37.043"/>
          <path fill="#E95C13"
                d="M303.274 399.432c4.796-2.23 6.886-2.383 12.863-9.206 5.976-6.823 11.57-18.688 24.558-18.7 12.986-.013 16.548 2.685 17.123 6.9.574 4.215-1.061 4.477-1.061 4.477s2.57 3.676-1.819 6.25c1.643 1.508.754 6.58-2.374 7.311-1.002 3.58-3.889 9.174-6.646 9.752-2.758.577-1.3-2.033-1.147-5.05.153-3.015.518-4.92-4.377-2.308-4.896 2.612-5.86 6.69-14.01 10.041-8.15 3.352-17.335 11.537-17.335 11.537l-5.775-21.004z"/>
          <path fill="#E65E16"
                d="M213.339 473.584c1.311 18.257-3.452 55.285-5.284 65.564a247.23 247.23 0 0 0-10.938 2.733l-.125.132s11.226-40.385 11.348-63.354c.13-23.59-11.557-58.894-15.802-70.27.814-.6 3.489-1.28 5.157 1.584 3.936 6.706 13.557 34.667 15.644 63.611"
                opacity=".5"/>
          <path fill="#FAD8C0"
                d="M152.321 412.717c-28.991 1.858-40.454 35.698-12.226 53.712 35.872 7.322 37.523 11.482 53.1 9.343 15.578-2.138 37.924 8.22 74.388-21.269 36.464-29.488 49.708-39.485 49.708-39.485l-11.834-21.133s-50.845 36.957-89.539 42.189c-38.694 5.23-36.983-5.862-43.755-12.484-4.952-4.842-12.477-8.233-19.842-10.873"/>
          <path fill="#C34D0F" d="M407 389.692s-36.523 44.309-49.06 156.513c27.12-89.915 38.372-126.648 49.06-156.513"/>
          <path fill="#FFF" d="M195.407 541.947l-.13.132c0-.016.013-.049.025-.103.031-.008.068-.016.105-.03"/>
          <path fill="#E95C13"
                d="M359.57 382.918c.011 3.61.834 5.486-.74 6.114-1.573.627-2.657 4.487-.296 4.491-1.254 1.035-2.812.716-2.685 2.34.127 1.624.595 1.85 1.926 1.582-1.712 1.153-2.642.79-2.638 1.993.003 1.203 1.173 2.323 4.267.385 3.093-1.94 4.378-2.805 4.008-4.068-.368-1.263-1.162-1.035-1.162-1.035 3.717-2.553 3.493-4.63 2.983-4.51 2.527-2.267.147-5.794-1.062-5.512 0 0 2.736-1.485 1.649-4.072-1.088-2.588-.474-4.243-2.622-3.188-2.149 1.056-3.628 5.48-3.628 5.48"/>
          <path fill="#C34D0F"
                d="M324.913 474.937c.013-.602.07-2.596.443-4.373-5.923 10.286-10.698 5.342-13.69.185-.114 11.864 2.857 16.594 8.552 15.39 12.874-2.721 18.287-19.655 22.984-32.673-.791-.306-3.127-.775-3.594-.923-1.924 6.021-6.168 18.848-8.424 21.908-3.155 4.282-6.403 6.47-6.271.486z"/>
        </g>
      </g>
    </g>
  </g>
</svg>
