<svg xmlns="http://www.w3.org/2000/svg" xmlns:xlink="http://www.w3.org/1999/xlink" width="400" height="559"
     viewBox="0 0 400 559">
  <defs>
    <path id="a"
          d="M6.41 0h387.18c2.23 0 3.037.232 3.852.668a4.543 4.543 0 0 1 1.89 1.89c.436.815.668 1.623.668 3.852v546.18c0 2.23-.232 3.037-.668 3.852a4.543 4.543 0 0 1-1.89 1.89c-.815.436-1.623.668-3.852.668H6.41c-2.23 0-3.037-.232-3.852-.668a4.543 4.543 0 0 1-1.89-1.89C.232 555.627 0 554.82 0 552.59V6.41c0-2.23.232-3.037.668-3.852a4.543 4.543 0 0 1 1.89-1.89C3.373.232 4.18 0 6.41 0z"/>
    <circle id="c" cx="258.5" cy="258.5" r="258.5"/>
  </defs>
  <g fill="none" fill-rule="evenodd">
    <mask id="b" fill="#fff">
      <use xlink:href="#a"/>
    </mask>
    <use fill="#FFF" xlink:href="#a"/>
    <g mask="url(#b)">
      <g transform="translate(-59 -299)">
        <mask id="d" fill="#fff">
          <use xlink:href="#c"/>
        </mask>
        <use fill="#E46F18" xlink:href="#c"/>
        <g fill="#FFC400" mask="url(#d)" opacity=".2">
          <path
            d="M61.971 434.002l.002-.002-.003-.002-.001.001zM69.667 355.604l-35.892 35.57 35.892 35.571 5.983-5.929.002.002-11.966 11.858L45.74 414.89l-5.983-5.93-17.947-17.785 41.876-41.5z"/>
          <path d="M44.317 391.617l30.894-30.021 6.178 6.003-24.716 24.018 24.716 24.018-6.178 6.003z"/>
          <path
            d="M68.15 391.617l17.21-17.66 5.739 5.888-11.474 11.772L91.1 403.389l-5.738 5.888zM92.864 391.617l6.179-6.18 6.178 6.18-6.178 6.18zM61.97 516.118h.003l-.003-.002-.001.001zM39.756 491.961l5.983 5.929 17.947 17.786 11.966-11.858-.001-.002-5.983 5.93-35.893-35.57 35.893-35.57 5.983 5.929.001-.002-11.966-11.857-41.877 41.5z"/>
          <path d="M44.317 473.734l30.894-30.021 6.178 6.003-24.716 24.018 24.716 24.018-6.178 6.003z"/>
          <path
            d="M68.15 473.734l17.21-17.66 5.739 5.888-11.474 11.772L91.1 485.506l-5.738 5.888zM92.864 473.734l6.179-6.18 6.178 6.18-6.178 6.18zM49.613 433.117l6.179-6.18 6.179 6.18-6.179 6.18zM121.11 407.51H84.036v-5.297h30.892zM108.752 396.915H96.395v-5.298h6.176zM131.701 421.638H73.445v-5.298h52.43z"/>
          <path
            d="M121.11 457.84H84.036v5.298h30.893zM108.752 469.32H96.395v5.297h6.178zM131.701 444.596H73.445v5.298h52.43zM143.176 433.117h-82.97v-5.298h77.155zM137.368 439.298H60.205V434h82.965l.006.006zM227.913 434.002l.001-.002-.003-.002-.001.001zM233.843 355.604l-35.892 35.57 35.892 35.571 5.983-5.929.002.002-11.966 11.858-17.947-17.786-5.983-5.93-17.947-17.785 41.876-41.5z"/>
          <path d="M208.493 391.617l30.894-30.021 6.178 6.003-24.716 24.018 24.716 24.018-6.178 6.003z"/>
          <path
            d="M234.09 391.617l17.212-17.66 5.738 5.888-11.473 11.772 11.473 11.772-5.738 5.888zM257.923 391.617l6.178-6.18 6.179 6.18-6.18 6.18zM227.91 516.117l.001.001h.003l-.002-.002-.002.001zM203.932 491.961l5.983 5.929 17.947 17.786 11.966-11.858-.002-.002-5.983 5.93-35.892-35.57 35.892-35.57 5.983 5.929.002-.002-11.966-11.857-41.877 41.5z"/>
          <path d="M208.493 473.734l30.894-30.021 6.178 6.003-24.716 24.018 24.716 24.018-6.178 6.003z"/>
          <path
            d="M234.09 473.734l17.212-17.66 5.738 5.888-11.473 11.772 11.473 11.772-5.738 5.888zM257.923 473.734l6.178-6.18 6.179 6.18-6.18 6.18zM186.427 473.736l.002-.002-.003-.002-.002.001z"/>
          <path
            d="M192.358 397.106l-35.893 35.57 35.893 35.57 5.983-5.93.002.001-11.966 11.859-17.948-17.786-5.982-5.93-17.947-17.784 41.877-41.5 11.966 11.858-.002.001z"/>
          <path d="M167.008 433.117l30.894-30.021 6.178 6.003-24.716 24.018 24.716 24.018-6.178 6.003z"/>
          <path
            d="M192.605 433.117l17.212-17.66 5.738 5.888-11.474 11.772 11.474 11.772-5.738 5.888zM215.555 433.117l6.178-6.18 6.179 6.18-6.179 6.18zM287.05 407.51H249.98v-5.297h30.892zM274.693 396.915h-12.357v-5.298h6.175zM297.643 421.638h-58.256v-5.298h52.429zM287.05 457.84H249.98v5.298h30.893zM274.693 469.32h-12.357v5.297h6.179zM297.643 444.596h-58.256v5.298h52.43z"/>
          <path
            d="M310 433.117h-82.97v-5.298h77.156zM304.192 439.298H227.03V434h82.965l.006.006zM145.825 516.119l.001-.001-.003-.003-.001.002zM121.844 491.96l5.983 5.93 17.947 17.786 11.966-11.859-.002-.001-5.983 5.93-35.892-35.571 35.892-35.57-5.983-5.93-41.875 41.5z"/>
          <path d="M127.288 473.734l30.894-30.021 6.178 6.003-24.716 24.018 24.716 24.018-6.178 6.003z"/>
          <path d="M153.768 473.734l17.211-17.66 5.738 5.889-11.473 11.771 11.473 11.772-5.738 5.888z"/>
          <path
            d="M173.187 473.734l6.178-6.18 6.179 6.18-6.179 6.18zM145.825 516.117h-.001zM61.974 514.351h11.964l-.002-.002 35.893-34.054 5.983 5.676.001-.001-11.965-11.353-41.877 39.732zM84.482 516.559h12.356l-.003-.003 24.716-23.31-6.178-5.826-30.894 29.136zM109.637 515.234h11.476l-.002-.002 11.473-11.77-5.738-5.888-17.211 17.658zM132.587 514.351h12.351l.003-.002-6.178-5.296-6.179 5.296zM204.963 493.16H167.89v-5.298h30.892z"/>
          <path
            d="M192.605 479.915h-12.357v-5.298h6.175zM215.555 504.638h-58.256v-5.298h52.429zM144.941 516.117h82.971l-5.815-5.298h-77.156z"/>
          <path d="M144.941 514.354h82.971l-.006-.006h-82.965zM-21 515.234h82.97l-5.926-5.298H-21z"/>
          <path
            d="M-19.235 514.354h82.971l-.006-.006h-82.965zM309.118 516.119l.002-.001-.003-.003-.002.002zM286.861 491.96l5.675 5.93 17.023 17.786v-11.858l-28.371-29.643 28.37-29.643v-11.856l-39.72 41.499z"/>
          <path
            d="M294.112 474.617l17.653-17.66v11.772l-5.886 5.888 5.886 5.887v11.773zM310.883 516.117zM226.15 514.351h11.964l-.002-.002 35.893-34.054 5.983 5.676.001-.001-11.965-11.353-41.877 39.732zM249.54 516.559h12.356l-.002-.003 24.715-23.31-6.178-5.826-30.894 29.136zM275.578 515.234h11.477l-.003-.002 11.473-11.77-5.738-5.888-17.211 17.658zM296.763 514.351h12.351l.003-.002-6.179-5.296-6.178 5.296z"/>
          <path
            d="M308.676 515.676v-5.298h-.883v5.298zM309.559 515.678v-.005h-.883v.005zM61.971 351.885l.002-.002-.003-.002-.001.001zM69.667 274.372l-35.892 35.57 35.892 35.569 5.983-5.93.002.002-11.966 11.858-17.947-17.786-5.983-5.928L21.81 309.94l41.877-41.5L75.652 280.3l-.002.002z"/>
          <path d="M44.317 310.383l30.894-30.021 6.178 6.003-24.716 24.018 24.716 24.018-6.178 6.003z"/>
          <path
            d="M68.15 308.617l17.21-17.66 5.739 5.888-11.474 11.772L91.1 320.389l-5.738 5.888zM92.864 308.617l6.179-6.18 6.178 6.18-6.178 6.18z"/>
          <path
            d="M108.752 304.202H96.395v5.298h6.178zM227.91 351.882l.003.003.001-.001-.002-.003-.002.001zM233.843 274.372l-35.892 35.57 35.892 35.569 5.983-5.93.002.002-11.966 11.858-17.947-17.786-5.983-5.928-17.947-17.786 41.877-41.5 11.966 11.858-.002.002z"/>
          <path d="M208.493 310.383l30.894-30.021 6.178 6.003-24.716 24.018 24.716 24.018-6.178 6.003z"/>
          <path
            d="M234.09 308.617l17.212-17.66 5.738 5.888-11.473 11.772 11.473 11.772-5.738 5.888zM257.923 308.617l6.178-6.18 6.179 6.18-6.18 6.18zM186.427 310.385l.002-.001-.003-.003-.002.002z"/>
          <path
            d="M192.358 233.755l-35.893 35.57 35.893 35.57 5.983-5.93.002.002-11.966 11.857-17.948-17.785-5.982-5.93-17.947-17.784 41.877-41.5 11.966 11.857-.002.002zM274.693 304.202h-12.357v5.298h6.179zM145.825 351.885l.001-.001-.003-.003-.001.001z"/>
          <path
            d="M151.755 274.37l-35.892 35.57 35.892 35.57 5.983-5.928.002.001-11.966 11.858-17.947-17.786-5.983-5.929-17.947-17.785 41.876-41.5z"/>
          <path d="M127.288 310.383l30.894-30.021 6.178 6.003-24.716 24.018L164.36 334.4l-6.178 6.003z"/>
          <path d="M153.768 308.617l17.211-17.66 5.738 5.888-11.473 11.772 11.473 11.772-5.738 5.888z"/>
          <path
            d="M173.187 308.617l6.178-6.18 6.179 6.18-6.179 6.18zM145.822 434l.003.002.001-.001-.002-.003-.002.001zM151.755 355.606l-35.892 35.57 35.892 35.57 5.983-5.93.002.002-11.966 11.858-17.947-17.786-5.983-5.93-17.947-17.784 41.877-41.5 11.966 11.858-.002.001z"/>
          <path d="M127.288 391.617l30.894-30.021 6.178 6.003-24.716 24.018 24.716 24.018-6.178 6.003z"/>
          <path d="M153.768 391.617l17.211-17.66 5.738 5.888-11.473 11.772 11.473 11.772-5.738 5.888z"/>
          <path
            d="M173.187 391.617l6.178-6.18 6.179 6.18-6.179 6.18zM103.457 391.619l.001-.002-.003-.002-.001.002zM111.153 315.872l-35.893 35.57 35.893 35.569 5.983-5.93.001.002-11.965 11.858-17.948-17.786-5.983-5.928-17.946-17.786 41.877-41.5 11.965 11.858-.001.002z"/>
          <path d="M84.92 352.766l30.894-30.021 6.178 6.003-24.716 24.018 24.716 24.018-6.178 6.003z"/>
          <path
            d="M109.635 351.883l17.211-17.66 5.738 5.888-11.473 11.772 11.473 11.772-5.738 5.888zM134.35 351.883l6.178-6.18 6.179 6.18-6.18 6.18zM204.963 326.277H167.89v-5.298h30.892zM192.605 314.798h-12.357V309.5h6.175zM215.555 339.521h-58.256v-5.298h52.429zM204.963 375.723H167.89v5.298h30.893zM192.605 387.202h-12.357v5.298h6.179zM215.555 362.479h-58.256v5.298h52.43zM227.912 350.117h-82.97v-5.298h77.156z"/>
          <path
            d="M222.104 356.298h-77.163V351h82.965l.006.006zM-21 349.234h82.97l-5.926-5.298H-21zM-21 358.064h77.05l5.92-5.292-.006-.006H-21zM309.118 350.119l.002-.001-.003-.003-.002.001zM309.559 279.415l-28.371 29.643 28.37 29.643v11.858l-17.022-17.787-5.675-5.928-17.022-17.786 39.718-41.5.002.002z"/>
          <path
            d="M294.112 309.5l17.653-17.66v11.773l-5.886 5.887 5.886 5.887v11.773zM310.88 434l.004.002V434l-.002-.003-.002.001zM309.559 363.299l-28.371 29.642 28.37 29.643v11.857l-17.022-17.785-5.675-5.93-17.022-17.785 39.72-41.5z"/>
          <path
            d="M294.112 392.5l17.653-17.66v11.773l-5.886 5.887 5.886 5.887v11.773zM267.633 391.619l.001-.002-.003-.002-.001.002zM275.329 315.872l-35.893 35.57 35.893 35.569 5.983-5.93.001.002-11.965 11.858-17.948-17.786-5.982-5.928-17.947-17.786 41.877-41.5 11.965 11.858-.001.002z"/>
          <path d="M249.979 352.766l30.894-30.021 6.178 6.003-24.716 24.018 24.716 24.018-6.178 6.003z"/>
          <path d="M275.576 351.883l17.211-17.66 5.738 5.888-11.473 11.772 11.473 11.772-5.738 5.888z"/>
          <path d="M298.525 351.883l6.179-6.18 6.179 6.18-6.18 6.18z"/>
          <path d="M308.676 351.441v-5.297h-.883v5.297z"/>
          <path
            d="M308.676 355.856v-5.297h-.883v5.297zM392.089 434.002l.001-.002-.002-.002-.002.001zM400.668 355.604l-35.893 35.57 35.893 35.571 5.982-5.929.002.002-11.965 11.858-17.948-17.786-5.983-5.93-17.947-17.785 41.876-41.5z"/>
          <path d="M374.435 391.617l30.893-30.021 6.179 6.003-24.716 24.018 24.716 24.018-6.179 6.003z"/>
          <path
            d="M398.267 391.617l17.21-17.66 5.739 5.888-11.473 11.772 11.473 11.772-5.738 5.888zM422.099 391.617l6.178-6.18 6.179 6.18-6.179 6.18zM392.088 516.118h.002l-.002-.002-.002.001zM370.757 491.961l5.982 5.929 17.948 17.786 11.965-11.858-.001-.002-5.983 5.93-35.893-35.57 35.893-35.57 5.983 5.929.001-.002-11.965-11.857-41.878 41.5z"/>
          <path d="M374.435 473.734l30.893-30.021 6.179 6.003-24.716 24.018 24.716 24.018-6.179 6.003z"/>
          <path
            d="M398.267 473.734l17.21-17.66 5.739 5.888-11.473 11.772 11.473 11.772-5.738 5.888zM422.099 473.734l6.178-6.18 6.179 6.18-6.179 6.18zM352.369 473.736l.001-.002-.003-.002-.001.001zM357.417 397.106l-35.893 35.57 35.893 35.57 5.983-5.93.001.001-11.965 11.859-17.948-17.786-5.982-5.93-17.947-17.784 41.877-41.5 11.965 11.858-.001.001z"/>
          <path d="M332.95 433.117l30.893-30.021 6.178 6.003-24.715 24.018 24.715 24.018-6.178 6.003z"/>
          <path d="M358.547 433.117l17.21-17.66 5.739 5.888-11.474 11.772 11.474 11.772-5.738 5.888z"/>
          <path
            d="M380.613 433.117l6.179-6.18 6.179 6.18-6.18 6.18zM452.11 407.51h-37.073v-5.297h30.893zM439.752 396.915h-12.357v-5.298h6.176zM462.701 421.638h-58.256v-5.298h52.43zM452.11 457.84h-37.073v5.298h30.894zM439.752 469.32h-12.357v5.297h6.178zM462.701 444.596h-58.256v5.298h52.43z"/>
          <path d="M475.059 433.117h-82.971v-5.298h77.156zM469.25 439.298h-77.162V434h82.965l.006.006z"/>
          <path
            d="M451.961 491.96l5.983 5.93 17.948 17.786 11.965-11.859-.002-.001-5.982 5.93-35.893-35.571 35.893-35.57-5.983-5.93-41.875 41.5z"/>
          <path
            d="M455.64 473.734l30.894-30.021 6.178 6.003-24.716 24.018 24.716 24.018-6.178 6.003zM392.973 514.351h11.966l-.003-.002 35.893-34.054 5.983 5.676.001-.001-11.965-11.353-41.877 39.732zM414.599 516.559h12.356l-.002-.003 24.715-23.31-6.178-5.826-30.894 29.136zM439.754 515.234h11.476l-.002-.002 11.473-11.77-5.738-5.888-17.211 17.658zM309.117 444.089l6.177-5.928-6.177-5.927v11.855zm0 71.145l12.358-11.858-.002-.002-6.179 5.93-6.177-5.928v11.858z"/>
          <path
            d="M309.117 480.622l17.654 18.013-5.885 6.003-11.769-12.008v-12.008zm0-24.018l11.77-12.008 5.884 6.003-17.654 18.013v-12.008zM317.061 473.734l17.212-17.66 5.738 5.889-11.474 11.771 11.474 11.772-5.738 5.888z"/>
          <path
            d="M340.01 473.734l6.18-6.18 6.178 6.18-6.179 6.18zM309.117 516.117zM370.021 493.16H332.95v-5.298h30.893z"/>
          <path
            d="M357.664 479.915h-12.357v-5.298h6.175zM380.613 504.638h-58.256v-5.298h52.43zM310 515.234h82.97l-5.926-5.298H310z"/>
          <path
            d="M310.883 514.354h82.97l-.005-.006h-82.965zM392.089 350.119l.001-.002-.002-.002-.002.001zM400.668 274.372l-35.893 35.57 35.893 35.569 5.982-5.93.002.002-11.965 11.858-17.948-17.786-5.983-5.928-17.947-17.786 41.878-41.5 11.965 11.858-.002.002z"/>
          <path d="M374.435 310.383l30.893-30.021 6.179 6.003-24.716 24.018 24.716 24.018-6.179 6.003z"/>
          <path
            d="M398.267 308.617l17.21-17.66 5.739 5.888-11.473 11.772 11.473 11.772-5.738 5.888zM422.099 308.617l6.178-6.18 6.179 6.18-6.179 6.18zM352.369 310.385l.001-.001-.003-.003-.001.002zM357.417 233.755l-35.893 35.57 35.893 35.57 5.983-5.93.001.002-11.965 11.857-17.948-17.785-5.982-5.93-17.947-17.784 41.877-41.5 11.965 11.857-.001.002z"/>
          <path
            d="M439.752 304.202h-12.357v5.298h6.178zM481.873 274.37l-35.893 35.57 35.893 35.57 5.983-5.928.001.001-11.965 11.858-17.948-17.786-5.983-5.929-17.946-17.785 41.875-41.5z"/>
          <path
            d="M455.64 310.383l30.894-30.021 6.178 6.003-24.716 24.018 24.716 24.018-6.178 6.003zM481.873 355.606l-35.893 35.57 35.893 35.57 5.983-5.93.001.002-11.965 11.858-17.948-17.786-5.983-5.93-17.946-17.784 41.877-41.5 11.965 11.858-.001.001z"/>
          <path
            d="M455.64 391.617l30.894-30.021 6.178 6.003-24.716 24.018 24.716 24.018-6.178 6.003zM433.574 391.619l.002-.002-.003-.002-.002.002zM440.387 314.989l-35.893 35.57 35.893 35.569 5.983-5.93.002.002-11.965 11.859-17.949-17.787-5.982-5.928-17.947-17.786 41.878-41.5 11.965 11.858-.002.002z"/>
          <path d="M415.92 352.766l30.894-30.021 6.178 6.003-24.716 24.018 24.716 24.018-6.178 6.003z"/>
          <path
            d="M440.635 350.117l17.21-17.66 5.739 5.888-11.474 11.772 11.474 11.772-5.738 5.888zM309.117 338.259l6.177 5.927 6.179-5.929.002.002-12.358 11.858v-11.858zm6.177-65.214l-6.177 5.927v-11.855l6.177 5.928z"/>
          <path
            d="M309.117 315.505l17.654 18.013-5.885 6.003-11.769-12.009v-12.007zm0-24.018l11.77-12.008 5.884 6.003-17.654 18.013v-12.008zM317.061 308.617l17.212-17.66 5.738 5.888-11.474 11.772 11.474 11.772-5.738 5.888z"/>
          <path
            d="M340.01 308.617l6.18-6.18 6.178 6.18-6.179 6.18zM309.117 421.26l6.177 5.927 6.179-5.929.002.002-12.358 11.857V421.26zm6.177-65.212l-6.177 5.926v-11.857l12.358 11.858-.002.001-6.179-5.928z"/>
          <path
            d="M309.117 398.505l17.654 18.013-5.885 6.003-11.769-12.009v-12.007zm0-24.018l11.77-12.008 5.884 6.003-17.654 18.013v-12.008zM317.061 391.617l17.212-17.66 5.738 5.888-11.474 11.772 11.474 11.772-5.738 5.888z"/>
          <path
            d="M340.01 391.617l6.18-6.18 6.178 6.18-6.179 6.18zM370.021 326.277H332.95v-5.298h30.893zM357.664 314.798h-12.357V309.5h6.175zM380.613 339.521h-58.256v-5.298h52.43zM370.021 375.723H332.95v5.298h30.894z"/>
          <path
            d="M357.664 387.202h-12.357v5.298h6.178zM380.613 362.479h-58.256v5.298h52.43zM392.97 349.234H310v-5.298h77.043zM387.05 358.064H310v-5.298h82.965l.006.006z"/>
        </g>
        <g mask="url(#d)">
          <g transform="translate(111 328)">
            <path fill="#FFAE70" fill-rule="nonzero"
                  d="M1 106.16l51.8 113.22c2.474 5.367 8.82 7.727 14.2 5.28l8.23-3.77 190.57-87.25c5.355-2.47 7.71-8.801 5.27-14.17l-45.8-100-6-13.21A10.74 10.74 0 0 0 205 1L6.23 92C.9 94.489-1.433 100.804 1 106.16z"/>
            <path fill="#FFAE70" fill-rule="nonzero" d="M265.801 107.98L47.548 207.904l-25.543-55.79 218.253-99.925z"/>
            <path fill="#DCE9FF" fill-rule="nonzero" d="M240.357 97.954l-137.922 63.145-9.141-19.966 137.922-63.146z"/>
            <path fill="#FF6D00" fill-rule="nonzero" d="M245.142 62.854L26.889 162.778l-13.63-29.768 218.254-99.924z"/>
            <path fill="#FFAE70" fill-rule="nonzero"
                  d="M30.6 107.59l44.62 113.3 190.57-87.25c5.355-2.47 7.71-8.801 5.27-14.17l-45.8-100L36.64 93.71c-5.482 2.185-8.177 8.38-6.04 13.88z"
                  style="mix-blend-mode:multiply"/>
            <path fill="#FAD8C0" fill-rule="nonzero"
                  d="M43.87 94.1l206.3-72.45c5.572-1.939 11.663.988 13.63 6.55l41.27 117.49c1.94 5.574-.987 11.669-6.55 13.64l-206.3 72.45c-5.572 1.939-11.663-.988-13.63-6.55L37.33 107.74c-1.94-5.571.98-11.664 6.54-13.64z"/>
            <path fill="#FFAE70" fill-rule="nonzero" d="M297.543 124.28l-226.48 79.534-17.95-51.11 226.481-79.535z"/>
            <path fill="#E95C13" fill-rule="nonzero"
                  d="M255.034 55.587l-46.817 16.441-2.562-7.293 46.818-16.441zM285.19 141.423l-37.56 13.19-1.34-3.811 37.562-13.19zM287.75 148.712l-48.402 16.998-1.338-3.812 48.402-16.997z"/>
            <path fill="#DCE9FF" fill-rule="nonzero" d="M116.704 208.787l-24.2 8.499-2.88-8.2 24.2-8.498z"/>
            <path fill="#E95C13" fill-rule="nonzero"
                  d="M243.22 130.36l28.27-9.93a6 6 0 0 0 3.65-7.61 6 6 0 0 0-7.61-3.66l-28.27 9.93a6 6 0 0 0-3.65 7.61 6 6 0 0 0 7.61 3.66zM194.81 147.35l28.27-9.92a6 6 0 0 0 3.66-7.61 6 6 0 0 0-7.61-3.66l-28.27 9.93a6 6 0 0 0-3.66 7.61 6 6 0 0 0 7.61 3.65zM146.41 164.35l28.27-9.92a6 6 0 0 0 3.65-7.61 6 6 0 0 0-7.61-3.66l-28.27 9.93a6 6 0 0 0-3.65 7.61 6 6 0 0 0 7.61 3.65zM98 181.35l28.27-9.93a6 6 0 0 0 3.65-7.61 6 6 0 0 0-7.61-3.65l-28.27 9.93a6 6 0 0 0-3.65 7.61 6 6 0 0 0 7.61 3.65z"/>
            <rect width="34.86" height="24.02" x="231.873" y="79.855" fill="#FF6D00" rx="4.1"
                  transform="rotate(160.65 249.303 91.865)"/>
            <path fill="#FF6D00"
                  d="M92.46 123.07c-7.556.022-13.87-5.748-14.527-13.276-.657-7.527 4.561-14.304 12.007-15.591 7.446-1.288 14.637 3.343 16.546 10.654 1.909 7.311-2.1 14.866-9.226 17.383a14.522 14.522 0 0 1-4.8.83zm0-28.06a13.58 13.58 0 0 0-12.82 18.08A13.56 13.56 0 1 0 92.48 95l-.02.01z"/>
            <path fill="#E95C13" fill-rule="nonzero"
                  d="M58.51 120.52c2.568 7.288 10.554 11.117 17.844 8.557 7.29-2.561 11.127-10.544 8.574-17.836-2.554-7.293-10.533-11.138-17.828-8.591a14 14 0 0 0-8.59 17.87z"/>
          </g>
        </g>
      </g>
    </g>
  </g>
</svg>
