<svg xmlns="http://www.w3.org/2000/svg" width="68" height="68" viewBox="0 0 68 68">
  <g fill="none" fill-rule="evenodd">
    <rect width="68" height="68" fill="#FF7E00" rx="34"/>
    <path d="M12 12h44v44H12z"/>
    <g fill="#FFF" fill-rule="nonzero" transform="translate(16 16)">
      <path
        d="M17.857 0C8.011 0 0 8.01 0 17.857s8.01 17.857 17.857 17.857 17.857-8.01 17.857-17.857C35.714 8.011 27.704 0 17.857 0zm0 3.571c5.273 0 9.879 2.88 12.352 7.143H5.505c2.474-4.262 7.079-7.143 12.352-7.143zM4.041 21.43h6.673c.984 0 1.786.801 1.786 1.785v7.877a14.33 14.33 0 0 1-8.459-9.662zm12.03 10.59v-8.805a5.364 5.364 0 0 0-5.357-5.357H3.571c0-1.234.175-2.427.47-3.571h27.632c.295 1.144.47 2.337.47 3.571H25a5.364 5.364 0 0 0-5.357 5.357v8.806a14.37 14.37 0 0 1-1.786.123c-.605 0-1.198-.05-1.786-.123zm7.143-.928v-7.877c0-.984.802-1.785 1.786-1.785h6.673a14.33 14.33 0 0 1-8.459 9.662z"/>
      <circle cx="17.857" cy="17.857" r="2.679"/>
    </g>
  </g>
</svg>
