<svg xmlns="http://www.w3.org/2000/svg" xmlns:xlink="http://www.w3.org/1999/xlink" width="146" height="114"
     viewBox="0 0 146 114">
  <defs>
    <circle id="a" cx="23.914" cy="23.828" r="16.865"/>
  </defs>
  <g fill="none" fill-rule="evenodd">
    <ellipse cx="73.351" cy="57" fill="#FF6D00" fill-rule="nonzero" opacity=".1" rx="57.207" ry="57"/>
    <g transform="translate(0 25.178)">
      <rect width="143.894" height="61.546" y="2.098" fill="#020202" fill-rule="nonzero" opacity=".02" rx="3.556"
            style="mix-blend-mode:multiply"/>
      <rect width="143.894" height="61.546" x="2.106" fill="#FFF" fill-rule="nonzero" rx="3.556"/>
      <path fill="#FFC70F" fill-rule="nonzero"
            d="M129.782 13.705l-4.84.81 3.57 3.518-.766 5.047 4.303-2.444 4.38 2.318-.898-5.024 3.45-3.62-4.851-.662-2.234-4.556zM112.234 13.705l-4.84.81 3.56 3.518-.756 5.047 4.303-2.444 4.37 2.318-.899-5.024 3.46-3.62-4.861-.662-2.234-4.556zM94.686 13.705l-4.84.81 3.559 3.518-.756 5.047 4.304-2.444 4.37 2.318-.899-5.024 3.46-3.62-4.861-.662-2.234-4.556z"
            opacity=".3"/>
      <path fill="#FFC70F" fill-rule="nonzero"
            d="M75.868 18.033L75.1 23.08l4.14-2.341.164-.091 4.37 2.306-.888-5.035 3.45-3.609-4.852-.662-2.244-4.556-2.103 4.613-4.84.822zM59.59 13.705l-4.84.81 3.559 3.518-.756 5.047 4.304-2.444 4.37 2.318-.899-5.024 3.46-3.62-4.862-.662-2.233-4.556z"/>
      <path stroke="#009AF7" stroke-width=".7"
            d="M54.741 32.05h64.84M54.042 38.46h77.56M54.042 45.569h77.56M54.042 52.678h77.56" opacity=".5"/>
      <g transform="translate(4.21 4.08)">
        <mask id="b" fill="#fff">
          <use xlink:href="#a"/>
        </mask>
        <use fill="#FAD8C0" fill-rule="nonzero" opacity=".36" transform="rotate(-45 23.914 23.828)" xlink:href="#a"/>
        <g fill-rule="nonzero" mask="url(#b)">
          <path fill="#FAD8C0"
                d="M30.806 24.265c-.563.224-.338 2.143-.44 2.75-.1.606-.551 3.007-1.812 3.366-1.262.36-2.04.472-2.04.674 0 .202 0 .538.057.976.056.438.079.965.079.965L25.524 34.4l-1.24.09-3.04-.876s-.147-3.153-.27-3.636c-.08-.303-1.217-2.435-2.05-4.489a10.453 10.453 0 0 1-.902-3.254c0-2.245.08-4.49 1.442-5.612 1.363-1.122 9.98-5.207 10.216 1.515.39 1.53.89 3.031 1.498 4.49a1.052 1.052 0 0 1-.372 1.638z"/>
          <path fill="#FAD8C0"
                d="M26.571 32.031c0 .483.079.965.079.965l-.315 1.571-2.05-.078-3.041-.876s-.147-3.153-.27-3.636c-.08-.303-1.217-2.435-2.05-4.489l.112-1.302s2.49-.28 2.59-.269c.348.5.65 1.03.902 1.582 0 .09-.485 1.55-.485 1.55s-.09 2.03 0 3.59c.05.822.614 1.524 1.408 1.751a5.65 5.65 0 0 0 1.442.225 2.72 2.72 0 0 0 1.678-.584z"/>
          <path fill="#FF6D00"
                d="M21.807 23.49s-1.036 4.321 1.385 6.633c2.422 2.312 6.646 1.044 7.231.528.586-.517 2.58-4.12.744-5.78-1.836-1.661-4.258.157-4.258.157s-1.442 1.223-1.915 1.122c-.473-.1-1.52-1.616-1.126-4.376a.337.337 0 0 1 .293-.292c.563-.068 1.87-.539 1.79-3.277a.392.392 0 0 1 .406-.416c.927.017 1.852.084 2.771.202.173.033.343.082.507.146a.27.27 0 0 1 .169.18c.079.27.248.875.293 1.021l.473 1.549a.942.942 0 0 0 .428-.752 14.09 14.09 0 0 1-.102-1.807c.102-.236.8-.415.913-.976.27-1.28.777-6.263-3.312-3.906a6.698 6.698 0 0 1-1.475.797c-.575.112-1.127-.415-2.253-.539-1.633-.18-8.91.326-8.042 7.553.867 7.228 4.325 8.9 4.325 8.9s-.113-5.926.755-6.666z"/>
          <path fill="#FAD8C0"
                d="M21.807 23.49s-.113-1.234-1.059-1.066c-1.284.236-1.825 3.558.845 3.614a9.819 9.819 0 0 1 .214-2.547z"/>
          <path fill="#FF6D00"
                d="M21.322 33.546s3.751 1.425 5.418-.516c4.618.65 6.206.606 8.92 3.85-2.252 4.062-14.552 5.936-15.002 5.79-.45-.146-6.409-3.31-6.578-3.456.549-3.49 3.71-5.964 7.242-5.668z"/>
        </g>
      </g>
    </g>
  </g>
</svg>
