<svg xmlns="http://www.w3.org/2000/svg" width="36" height="25" viewBox="0 0 36 25">
  <g fill="none" fill-rule="evenodd">
    <path fill="#1B3D92"
          d="M0 2.99A2.999 2.999 0 0 1 3.007 0h29.986A3.002 3.002 0 0 1 36 2.99v19.02A2.999 2.999 0 0 1 32.993 25H3.007A3.002 3.002 0 0 1 0 22.01V2.99z"/>
    <g fill="#FFF">
      <path
        d="M22.77 9.402c.164-1.049-.001-1.762-.564-2.408-.62-.711-1.74-1.016-3.174-1.016H14.87a.596.596 0 0 0-.588.506L12.55 17.542a.359.359 0 0 0 .353.415h2.569l-.178 1.132c-.03.19.117.363.309.363h2.165a.522.522 0 0 0 .515-.442l.02-.111.409-2.603.026-.144a.522.522 0 0 1 .514-.443h.324c2.098 0 3.74-.857 4.22-3.338.2-1.036.097-1.901-.433-2.51a2.065 2.065 0 0 0-.593-.46"
        opacity=".68"/>
      <path
        d="M22.77 9.402c.164-1.049-.001-1.762-.564-2.408-.62-.711-1.74-1.016-3.174-1.016H14.87a.596.596 0 0 0-.588.506L12.55 17.542a.359.359 0 0 0 .353.415h2.569l.645-4.118-.02.13a.594.594 0 0 1 .586-.507h1.22c2.399 0 4.276-.98 4.825-3.815.016-.084.03-.166.042-.245"
        opacity=".7"/>
      <path
        d="M16.81 9.415a.524.524 0 0 1 .515-.442h3.261c.387 0 .747.026 1.076.079a4.716 4.716 0 0 1 .534.12l.123.038c.162.054.313.118.451.192.164-1.048 0-1.762-.564-2.408-.62-.711-1.74-1.016-3.174-1.016H14.87a.596.596 0 0 0-.588.506L12.55 17.542a.359.359 0 0 0 .353.415h2.569l.645-4.118.693-4.424z"/>
    </g>
  </g>
</svg>
