<svg xmlns="http://www.w3.org/2000/svg" width="36" height="25" viewBox="0 0 36 25">
  <g fill="none" fill-rule="evenodd">
    <path fill="#0742A6"
          d="M0 2.99A2.999 2.999 0 0 1 3.007 0h29.986A3.002 3.002 0 0 1 36 2.99v19.02A2.999 2.999 0 0 1 32.993 25H3.007A3.002 3.002 0 0 1 0 22.01V2.99z"/>
    <g fill="#FFF">
      <path
        d="M16.376 16.165h-1.93l1.207-7.246h1.93zM23.375 9.097a4.886 4.886 0 0 0-1.732-.309c-1.906 0-3.25.987-3.257 2.397-.016 1.041.961 1.619 1.692 1.966.747.355 1 .586 1 .902-.007.486-.603.71-1.159.71-.77 0-1.184-.116-1.811-.386l-.255-.116-.27 1.627c.453.2 1.287.377 2.154.385 2.025 0 3.344-.971 3.36-2.474.008-.825-.508-1.457-1.62-1.974-.676-.331-1.09-.555-1.09-.894.008-.308.35-.624 1.113-.624a3.366 3.366 0 0 1 1.438.277l.174.077.263-1.564z"/>
      <path fill-rule="nonzero"
            d="M25.941 13.598c.16-.416.77-2.027.77-2.027-.007.015.16-.424.255-.694l.135.625s.365 1.734.445 2.096H25.94zm2.383-4.679h-1.493c-.46 0-.81.131-1.01.602l-2.867 6.644h2.026l.405-1.087h2.479c.055.255.23 1.087.23 1.087h1.788L28.324 8.92z"/>
      <path
        d="M12.832 8.92l-1.89 4.94-.207-1.002c-.35-1.156-1.446-2.412-2.67-3.037l1.733 6.337h2.041l3.035-7.239h-2.042z"/>
      <path d="M9.186 8.92H6.079l-.031.146c2.423.601 4.028 2.05 4.687 3.793l-.675-3.33c-.111-.463-.453-.594-.874-.61z"/>
    </g>
  </g>
</svg>
