<svg xmlns="http://www.w3.org/2000/svg" xmlns:xlink="http://www.w3.org/1999/xlink" width="400" height="811"
     viewBox="0 0 400 811">
  <defs>
    <path id="a" d="M0 0h400v811H0z"/>
    <circle id="c" cx="258.5" cy="258.5" r="258.5"/>
  </defs>
  <g fill="none" fill-rule="evenodd">
    <mask id="b" fill="#fff">
      <use xlink:href="#a"/>
    </mask>
    <use fill="#F4F4F6" xlink:href="#a"/>
    <g mask="url(#b)">
      <g transform="translate(-56 -363)">
        <mask id="d" fill="#fff">
          <use xlink:href="#c"/>
        </mask>
        <use fill="#15B982" xlink:href="#c"/>
        <g fill="#05F27F" mask="url(#d)" opacity=".2">
          <path
            d="M61.971 434.002l.002-.002-.003-.002-.001.001zM69.667 355.604l-35.892 35.57 35.892 35.571 5.983-5.929.002.002-11.966 11.858L45.74 414.89l-5.983-5.93-17.947-17.785 41.876-41.5z"/>
          <path d="M44.317 391.617l30.894-30.021 6.178 6.003-24.716 24.018 24.716 24.018-6.178 6.003z"/>
          <path
            d="M68.15 391.617l17.21-17.66 5.739 5.888-11.474 11.772L91.1 403.389l-5.738 5.888zM92.864 391.617l6.179-6.18 6.178 6.18-6.178 6.18zM61.97 516.118h.003l-.003-.002-.001.001zM39.756 491.961l5.983 5.929 17.947 17.786 11.966-11.858-.001-.002-5.983 5.93-35.893-35.57 35.893-35.57 5.983 5.929.001-.002-11.966-11.857-41.877 41.5z"/>
          <path d="M44.317 473.734l30.894-30.021 6.178 6.003-24.716 24.018 24.716 24.018-6.178 6.003z"/>
          <path
            d="M68.15 473.734l17.21-17.66 5.739 5.888-11.474 11.772L91.1 485.506l-5.738 5.888zM92.864 473.734l6.179-6.18 6.178 6.18-6.178 6.18zM49.613 433.117l6.179-6.18 6.179 6.18-6.179 6.18zM121.11 407.51H84.036v-5.297h30.892zM108.752 396.915H96.395v-5.298h6.176zM131.701 421.638H73.445v-5.298h52.43z"/>
          <path
            d="M121.11 457.84H84.036v5.298h30.893zM108.752 469.32H96.395v5.297h6.178zM131.701 444.596H73.445v5.298h52.43zM143.176 433.117h-82.97v-5.298h77.155zM137.368 439.298H60.205V434h82.965l.006.006zM227.913 434.002l.001-.002-.003-.002-.001.001zM233.843 355.604l-35.892 35.57 35.892 35.571 5.983-5.929.002.002-11.966 11.858-17.947-17.786-5.983-5.93-17.947-17.785 41.876-41.5z"/>
          <path d="M208.493 391.617l30.894-30.021 6.178 6.003-24.716 24.018 24.716 24.018-6.178 6.003z"/>
          <path
            d="M234.09 391.617l17.212-17.66 5.738 5.888-11.473 11.772 11.473 11.772-5.738 5.888zM257.923 391.617l6.178-6.18 6.179 6.18-6.18 6.18zM227.91 516.117l.001.001h.003l-.002-.002-.002.001zM203.932 491.961l5.983 5.929 17.947 17.786 11.966-11.858-.002-.002-5.983 5.93-35.892-35.57 35.892-35.57 5.983 5.929.002-.002-11.966-11.857-41.877 41.5z"/>
          <path d="M208.493 473.734l30.894-30.021 6.178 6.003-24.716 24.018 24.716 24.018-6.178 6.003z"/>
          <path
            d="M234.09 473.734l17.212-17.66 5.738 5.888-11.473 11.772 11.473 11.772-5.738 5.888zM257.923 473.734l6.178-6.18 6.179 6.18-6.18 6.18zM186.427 473.736l.002-.002-.003-.002-.002.001z"/>
          <path
            d="M192.358 397.106l-35.893 35.57 35.893 35.57 5.983-5.93.002.001-11.966 11.859-17.948-17.786-5.982-5.93-17.947-17.784 41.877-41.5 11.966 11.858-.002.001z"/>
          <path d="M167.008 433.117l30.894-30.021 6.178 6.003-24.716 24.018 24.716 24.018-6.178 6.003z"/>
          <path
            d="M192.605 433.117l17.212-17.66 5.738 5.888-11.474 11.772 11.474 11.772-5.738 5.888zM215.555 433.117l6.178-6.18 6.179 6.18-6.179 6.18zM287.05 407.51H249.98v-5.297h30.892zM274.693 396.915h-12.357v-5.298h6.175zM297.643 421.638h-58.256v-5.298h52.429zM287.05 457.84H249.98v5.298h30.893zM274.693 469.32h-12.357v5.297h6.179zM297.643 444.596h-58.256v5.298h52.43z"/>
          <path
            d="M310 433.117h-82.97v-5.298h77.156zM304.192 439.298H227.03V434h82.965l.006.006zM145.825 516.119l.001-.001-.003-.003-.001.002zM121.844 491.96l5.983 5.93 17.947 17.786 11.966-11.859-.002-.001-5.983 5.93-35.892-35.571 35.892-35.57-5.983-5.93-41.875 41.5z"/>
          <path d="M127.288 473.734l30.894-30.021 6.178 6.003-24.716 24.018 24.716 24.018-6.178 6.003z"/>
          <path d="M153.768 473.734l17.211-17.66 5.738 5.889-11.473 11.771 11.473 11.772-5.738 5.888z"/>
          <path
            d="M173.187 473.734l6.178-6.18 6.179 6.18-6.179 6.18zM145.825 516.117h-.001zM61.974 514.351h11.964l-.002-.002 35.893-34.054 5.983 5.676.001-.001-11.965-11.353-41.877 39.732zM84.482 516.559h12.356l-.003-.003 24.716-23.31-6.178-5.826-30.894 29.136zM109.637 515.234h11.476l-.002-.002 11.473-11.77-5.738-5.888-17.211 17.658zM132.587 514.351h12.351l.003-.002-6.178-5.296-6.179 5.296zM204.963 493.16H167.89v-5.298h30.892z"/>
          <path
            d="M192.605 479.915h-12.357v-5.298h6.175zM215.555 504.638h-58.256v-5.298h52.429zM144.941 516.117h82.971l-5.815-5.298h-77.156z"/>
          <path d="M144.941 514.354h82.971l-.006-.006h-82.965zM-21 515.234h82.97l-5.926-5.298H-21z"/>
          <path
            d="M-19.235 514.354h82.971l-.006-.006h-82.965zM309.118 516.119l.002-.001-.003-.003-.002.002zM286.861 491.96l5.675 5.93 17.023 17.786v-11.858l-28.371-29.643 28.37-29.643v-11.856l-39.72 41.499z"/>
          <path
            d="M294.112 474.617l17.653-17.66v11.772l-5.886 5.888 5.886 5.887v11.773zM310.883 516.117zM226.15 514.351h11.964l-.002-.002 35.893-34.054 5.983 5.676.001-.001-11.965-11.353-41.877 39.732zM249.54 516.559h12.356l-.002-.003 24.715-23.31-6.178-5.826-30.894 29.136zM275.578 515.234h11.477l-.003-.002 11.473-11.77-5.738-5.888-17.211 17.658zM296.763 514.351h12.351l.003-.002-6.179-5.296-6.178 5.296z"/>
          <path
            d="M308.676 515.676v-5.298h-.883v5.298zM309.559 515.678v-.005h-.883v.005zM145.822 434l.003.002.001-.001-.002-.003-.002.001zM151.755 355.606l-35.892 35.57 35.892 35.57 5.983-5.93.002.002-11.966 11.858-17.947-17.786-5.983-5.93-17.947-17.784 41.877-41.5 11.966 11.858-.002.001z"/>
          <path d="M127.288 391.617l30.894-30.021 6.178 6.003-24.716 24.018 24.716 24.018-6.178 6.003z"/>
          <path d="M153.768 391.617l17.211-17.66 5.738 5.888-11.473 11.772 11.473 11.772-5.738 5.888z"/>
          <path
            d="M173.187 391.617l6.178-6.18 6.179 6.18-6.179 6.18zM103.457 391.619l.001-.002-.003-.002-.001.002zM111.153 315.872l-35.893 35.57 35.893 35.569 5.983-5.93.001.002-11.965 11.858-17.948-17.786-5.983-5.928-17.946-17.786 41.877-41.5 11.965 11.858-.001.002z"/>
          <path d="M84.92 352.766l30.894-30.021 6.178 6.003-24.716 24.018 24.716 24.018-6.178 6.003z"/>
          <path
            d="M109.635 351.883l17.211-17.66 5.738 5.888-11.473 11.772 11.473 11.772-5.738 5.888zM204.963 375.723H167.89v5.298h30.893zM192.605 387.202h-12.357v5.298h6.179zM215.555 362.479h-58.256v5.298h52.43zM310.88 434l.004.002V434l-.002-.003-.002.001zM309.559 363.299l-28.371 29.642 28.37 29.643v11.857l-17.022-17.785-5.675-5.93-17.022-17.785 39.72-41.5z"/>
          <path
            d="M294.112 392.5l17.653-17.66v11.773l-5.886 5.887 5.886 5.887v11.773zM267.633 391.619l.001-.002-.003-.002-.001.002zM275.329 315.872l-35.893 35.57 35.893 35.569 5.983-5.93.001.002-11.965 11.858-17.948-17.786-5.982-5.928-17.947-17.786 41.877-41.5 11.965 11.858-.001.002z"/>
          <path d="M249.979 352.766l30.894-30.021 6.178 6.003-24.716 24.018 24.716 24.018-6.178 6.003z"/>
          <path
            d="M275.576 351.883l17.211-17.66 5.738 5.888-11.473 11.772 11.473 11.772-5.738 5.888zM392.089 434.002l.001-.002-.002-.002-.002.001zM400.668 355.604l-35.893 35.57 35.893 35.571 5.982-5.929.002.002-11.965 11.858-17.948-17.786-5.983-5.93-17.947-17.785 41.876-41.5z"/>
          <path d="M374.435 391.617l30.893-30.021 6.179 6.003-24.716 24.018 24.716 24.018-6.179 6.003z"/>
          <path
            d="M398.267 391.617l17.21-17.66 5.739 5.888-11.473 11.772 11.473 11.772-5.738 5.888zM422.099 391.617l6.178-6.18 6.179 6.18-6.179 6.18zM392.088 516.118h.002l-.002-.002-.002.001zM370.757 491.961l5.982 5.929 17.948 17.786 11.965-11.858-.001-.002-5.983 5.93-35.893-35.57 35.893-35.57 5.983 5.929.001-.002-11.965-11.857-41.878 41.5z"/>
          <path d="M374.435 473.734l30.893-30.021 6.179 6.003-24.716 24.018 24.716 24.018-6.179 6.003z"/>
          <path
            d="M398.267 473.734l17.21-17.66 5.739 5.888-11.473 11.772 11.473 11.772-5.738 5.888zM422.099 473.734l6.178-6.18 6.179 6.18-6.179 6.18zM352.369 473.736l.001-.002-.003-.002-.001.001zM357.417 397.106l-35.893 35.57 35.893 35.57 5.983-5.93.001.001-11.965 11.859-17.948-17.786-5.982-5.93-17.947-17.784 41.877-41.5 11.965 11.858-.001.001z"/>
          <path d="M332.95 433.117l30.893-30.021 6.178 6.003-24.715 24.018 24.715 24.018-6.178 6.003z"/>
          <path d="M358.547 433.117l17.21-17.66 5.739 5.888-11.474 11.772 11.474 11.772-5.738 5.888z"/>
          <path
            d="M380.613 433.117l6.179-6.18 6.179 6.18-6.18 6.18zM452.11 407.51h-37.073v-5.297h30.893zM439.752 396.915h-12.357v-5.298h6.176zM462.701 421.638h-58.256v-5.298h52.43zM452.11 457.84h-37.073v5.298h30.894zM439.752 469.32h-12.357v5.297h6.178zM462.701 444.596h-58.256v5.298h52.43z"/>
          <path d="M475.059 433.117h-82.971v-5.298h77.156zM469.25 439.298h-77.162V434h82.965l.006.006z"/>
          <path
            d="M451.961 491.96l5.983 5.93 17.948 17.786 11.965-11.859-.002-.001-5.982 5.93-35.893-35.571 35.893-35.57-5.983-5.93-41.875 41.5z"/>
          <path
            d="M455.64 473.734l30.894-30.021 6.178 6.003-24.716 24.018 24.716 24.018-6.178 6.003zM392.973 514.351h11.966l-.003-.002 35.893-34.054 5.983 5.676.001-.001-11.965-11.353-41.877 39.732zM414.599 516.559h12.356l-.002-.003 24.715-23.31-6.178-5.826-30.894 29.136zM439.754 515.234h11.476l-.002-.002 11.473-11.77-5.738-5.888-17.211 17.658zM309.117 444.089l6.177-5.928-6.177-5.927v11.855zm0 71.145l12.358-11.858-.002-.002-6.179 5.93-6.177-5.928v11.858z"/>
          <path
            d="M309.117 480.622l17.654 18.013-5.885 6.003-11.769-12.008v-12.008zm0-24.018l11.77-12.008 5.884 6.003-17.654 18.013v-12.008zM317.061 473.734l17.212-17.66 5.738 5.889-11.474 11.771 11.474 11.772-5.738 5.888z"/>
          <path
            d="M340.01 473.734l6.18-6.18 6.178 6.18-6.179 6.18zM309.117 516.117zM370.021 493.16H332.95v-5.298h30.893z"/>
          <path
            d="M357.664 479.915h-12.357v-5.298h6.175zM380.613 504.638h-58.256v-5.298h52.43zM310 515.234h82.97l-5.926-5.298H310z"/>
          <path
            d="M310.883 514.354h82.97l-.005-.006h-82.965zM481.873 355.606l-35.893 35.57 35.893 35.57 5.983-5.93.001.002-11.965 11.858-17.948-17.786-5.983-5.93-17.946-17.784 41.877-41.5 11.965 11.858-.001.001z"/>
          <path
            d="M455.64 391.617l30.894-30.021 6.178 6.003-24.716 24.018 24.716 24.018-6.178 6.003zM433.574 391.619l.002-.002-.003-.002-.002.002zM440.387 314.989l-35.893 35.57 35.893 35.569 5.983-5.93.002.002-11.965 11.859-17.949-17.787-5.982-5.928-17.947-17.786 41.878-41.5 11.965 11.858-.002.002z"/>
          <path d="M415.92 352.766l30.894-30.021 6.178 6.003-24.716 24.018 24.716 24.018-6.178 6.003z"/>
          <path
            d="M440.635 350.117l17.21-17.66 5.739 5.888-11.474 11.772 11.474 11.772-5.738 5.888zM309.117 421.26l6.177 5.927 6.179-5.929.002.002-12.358 11.857V421.26zm6.177-65.212l-6.177 5.926v-11.857l12.358 11.858-.002.001-6.179-5.928z"/>
          <path
            d="M309.117 398.505l17.654 18.013-5.885 6.003-11.769-12.009v-12.007zm0-24.018l11.77-12.008 5.884 6.003-17.654 18.013v-12.008zM317.061 391.617l17.212-17.66 5.738 5.888-11.474 11.772 11.474 11.772-5.738 5.888z"/>
          <path d="M340.01 391.617l6.18-6.18 6.178 6.18-6.179 6.18zM370.021 375.723H332.95v5.298h30.894z"/>
          <path d="M357.664 387.202h-12.357v5.298h6.178zM380.613 362.479h-58.256v5.298h52.43z"/>
        </g>
      </g>
    </g>
    <g mask="url(#b)">
      <path fill="#1E624D"
            d="M285 173c-4.033 15.653-13.804 27-25.166 27-.328 0-.652-.02-.978-.039H248c10.935-.613 20.266-11.76 24.183-26.961H285z"/>
      <path fill="#268165"
            d="M-6 163.795h19.279c42.038-6.828 25.885-79.349 25.885-79.349C31.35 63.087 9.818 49.66-6 42.372V37c41.483 14.407 47.031 39.054 52.105 46.364 66.455 6.39 85.43 17.623 92.222 25.015a27.97 27.97 0 0 1 4.64 5.408h-4.932c-6.123 0-8.49 5.57-5.289 12.44 2.793 5.986 9.125 10.78 14.963 11.965-.01.089 1.849.3 2.773.257.616-.028 58.508-.023 173.677.016l-.912 7.344-.358 21.56c.082 0 .159.019.239.026 1.602.132 2.872 1.543 2.872 3.29 0 1.828-1.394 3.315-3.11 3.315H122.811c-1.722 0-3.114-1.487-3.114-3.315a3.39 3.39 0 0 1 1.04-2.458 60.209 60.209 0 0 0 1.158-11.766c0-18.837-8.502-34.904-20.442-41.14-3.43-1.795-7.148-2.782-11.028-2.782-17.37 0-31.463 19.672-31.463 43.922 0 4.979.603 9.759 1.699 14.224H-6v-6.89z"/>
      <path fill="#009764"
            d="M262.328 173l10.672.08c-3.906 15.022-13.08 26.275-23.985 26.881-.324.018-.648.039-.975.039-11.321 0-21.017-11.454-25.04-26.922h9.332c3.031 8.908 8.653 15.439 15.09 15.439 6.434 0 11.873-6.608 14.906-15.517z"/>
      <path fill="#FFF"
            d="M255.162 177.01c-1.007.998-1.388 3.148-.903 4.922 1.355-1.054 2.604-2.434 3.716-4.09-.693-1.378-1.87-1.767-2.813-.832zm-6.46 3.62c-1.169 0-2.129 1.538-2.218 3.49.488.085.994.13 1.506.13a9.01 9.01 0 0 0 2.9-.487c-.183-1.78-1.094-3.134-2.188-3.134zm-6.649-2.396c-1.01-1.002-2.288-.491-2.945 1.111 1.196 1.468 2.51 2.648 3.926 3.483.358-1.706-.033-3.656-.98-4.594zM263 173c-3.013 8.823-8.365 15.026-15.005 15-6.64-.027-11.984-6.147-14.995-14.97h2.532c.301.734.63 1.572.97 2.248.386-.56.62-1.438.722-2.247L263 173z"/>
      <path fill="#11C582"
            d="M236.154 175c-.337-.593-.856-1.353-1.154-1.995l2-.005c-.1.71-.27 1.489-.65 1.98l-.196.02zM238 180.928c.507-1.808 1.367-2.513 2.147-1.382.73 1.06 1.05 3.39.728 5.454-.901-.73-1.86-2.086-2.875-4.072zM246 184.776c.096-1.49 1.276-2.776 2.548-2.776 1.19 0 2.252 1.152 2.452 2.512-1.02.241-2.142.488-3.229.488-.557 0-1.107-.034-1.638-.099l-.133-.125zM254.176 182c-.336-2-.23-3.983.67-5.419.658-1.046 1.674-.642 2.154.911-.58 1.438-1.522 2.94-2.824 4.508z"/>
      <path fill="#D1FFE5"
            d="M-2.32 34.328c13.568 3.944 39.89 14.707 51.381 40.668a63.961 63.961 0 0 1 1.636 4.048l133.277.286a102.307 102.307 0 0 0-4.299-4.334c-12.428-11.88-42.901-36.327-86.014-42.955l-25.704.079c-.155-.025-.302-.056-.458-.079l-69.735.24c-.472.182-1.993.914-.085 2.047zm194.398 85.423h90.49c.929 0 1.681-.808 1.681-1.798 0-.992-.752-1.8-1.68-1.8h-90.49c-.93 0-1.682.808-1.682 1.8 0 .99.752 1.798 1.681 1.798zm2.7 6.548h90.491c.927 0 1.679-.803 1.679-1.8 0-.99-.752-1.797-1.679-1.797h-90.491c-.93 0-1.683.807-1.683 1.798 0 .996.753 1.8 1.683 1.8zm2.159 6.356h90.49c.929 0 1.681-.803 1.681-1.797 0-.992-.752-1.799-1.68-1.799h-90.491c-.926 0-1.678.807-1.678 1.8s.752 1.796 1.678 1.796zm3.42 5.972h90.492c.93 0 1.68-.804 1.68-1.795 0-.996-.75-1.802-1.68-1.802h-90.493c-.925 0-1.678.806-1.678 1.802 0 .99.753 1.795 1.678 1.795zM-6 28h35.814c-.14.06 55.69.06 55.69.06 64.37 6.697 96.57 43.357 102.612 51.175 95.029 4.882 119.66 20.435 127.536 29.034a28.193 28.193 0 0 1 4.654 5.444h-24.09c-6.139 0-8.512 5.608-5.301 12.523 3.212 6.913 11.054 12.52 17.517 12.52H325a58.61 58.61 0 0 1-.324 2.244 1.023 1.023 0 0 0-.463-.127H147.795c.112-.696.214-1.4.301-2.118l.03-.27c.862.175 1.715.27 2.545.27h34.743c6.464 0 8.45-5.606 4.435-12.519-4.013-6.915-12.244-12.523-18.386-12.523h-28.06a28.145 28.145 0 0 0-4.653-5.444c-6.813-7.442-25.843-18.749-92.493-25.182C41.17 75.73 35.605 50.917-6 36.414V28zM162.889 145.867c-4.951 0-8.96 4.174-8.96 9.325 0 5.147 4.009 9.322 8.96 9.322h145.134c4.948 0 8.959-4.175 8.959-9.322 0-5.15-4.011-9.325-8.96-9.325H162.89zM147 155.504c0-5.801 4.703-10.504 10.504-10.504h155.478c5.523 0 10 4.477 10 10v.091l-.008.87a10 10 0 0 1-9.991 9.909l-155.479.13c-5.796.005-10.5-4.69-10.504-10.487v-.009z"/>
      <path fill="#1E624D"
            d="M290.318 137H199.68c-.927 0-1.681-.671-1.681-1.498 0-.83.754-1.502 1.68-1.502h90.638c.93 0 1.682.673 1.682 1.502 0 .827-.751 1.498-1.682 1.498M286.317 131h-90.636c-.928 0-1.681-.671-1.681-1.5 0-.827.753-1.5 1.681-1.5h90.636c.93 0 1.683.673 1.683 1.5 0 .829-.752 1.5-1.683 1.5M284.318 127h-90.632c-.931 0-1.686-.67-1.686-1.5 0-.827.755-1.5 1.686-1.5h90.632c.93 0 1.682.673 1.682 1.5 0 .83-.753 1.5-1.682 1.5M281.317 120H190.683c-.93 0-1.683-.673-1.683-1.498 0-.828.753-1.502 1.683-1.502H281.317c.93 0 1.683.674 1.683 1.502 0 .825-.753 1.498-1.683 1.498M308.257 151.04h-8.027c-2.76 0-4.997 2.807-4.997 6.27 0 3.464 2.237 6.271 4.997 6.271h8.027c2.76 0 4.997-2.807 4.997-6.271 0-3.463-2.237-6.27-4.997-6.27m-130.247 0h-10.837c-3.727 0-6.749 2.807-6.749 6.27 0 3.464 3.022 6.271 6.75 6.271h10.836c3.725 0 6.745-2.807 6.745-6.271 0-3.463-3.02-6.27-6.745-6.27M308.99 167H163.01c-4.98 0-9.011-4.254-9.011-9.5 0-5.247 4.031-9.5 9.011-9.5H308.99c4.976 0 9.011 4.253 9.011 9.5 0 5.246-4.035 9.5-9.011 9.5"/>
      <path fill="#11C582"
            d="M23.147 153H-6v-5h29.147c1.577 0 2.853 1.118 2.853 2.498 0 1.384-1.276 2.502-2.853 2.502M34 140.004c0 2.208-1.391 3.996-3.112 3.996H-5v-8h35.888c1.72 0 3.112 1.794 3.112 4.004"/>
      <path fill="#1E624D"
            d="M58 155.316C58 142.165 65.553 112 89.41 112c5.812 0 8.19 1.157 11.59 2.932l-11.08.305c-.153-.003-.305-.018-.458-.018-14.852 0-26.898 18.892-26.898 42.18 0 4.389.43 8.621 1.224 12.601h-3.509C58.76 168.979 58 164.084 58 155.316z"/>
      <path fill="#009764"
            d="M-6.972 153.096h30.198c1.635 0 2.957-1.144 2.957-2.56 0-1.412-1.322-2.556-2.957-2.556H-6.972v-3.326h36.513c1.75 0 3.166-1.716 3.166-3.834 0-2.12-1.416-3.841-3.166-3.841H-6.972V88.935c.868.55 1.872.88 2.95.88h16.675c3.189 0 5.796-4.223 5.796-7.603 0-.061 6.618-.061 6.618-.061 5.384-.426 3.654-4.183 3.368-4.952-4.8-7.75-11.168-14.178-17.84-19.418-5.918-4.654-12.06-8.35-17.567-11.215L-7 42c16.218 7.22 38.225 21.01 46.114 42.424 0 0 15.821 72.73-26.621 79.576H-6.972v-10.904z"/>
      <path fill="#0A6949"
            d="M18.178 83v-4.694c0-3.139-2.759-5.549-6.053-5.549H10l.066-9.412V59c6.891 4.869 13.469 10.84 18.428 18.04.294.714 2.082 5.563-3.48 5.96h-6.836z"/>
      <path fill="#009764"
            d="M49 74c.089.147 130.79.147 130.79.147l-.135-.147A92.045 92.045 0 0 1 184 79l-133.364-.33A79.907 79.907 0 0 0 49 74"/>
      <path fill="#1E624D"
            d="M90 115.125l11.261-.125c12.063 6.181 20.217 21.086 20.45 41.28.046 4.04.979 16.762.963 16.762H128C123.922 188.487 114.043 200 102.55 200c-.332 0-.661-.02-.99-.038H90.58c14.686-.805 26.431-19.394 26.431-42.212 0-23.092-12.083-42.238-27.011-42.625z"/>
      <path fill="#009764"
            d="M89.87 188.47c9.81 0 17.78-13.504 17.78-30.155 0-16.659-7.97-30.157-17.78-30.157-9.817 0-17.777 13.498-17.777 30.157 0 16.651 7.96 30.155 17.776 30.155M63 157.506C63 134.038 75.315 115 90.5 115c.156 0 .311.014.468.018C105.94 115.407 118 134.28 118 157.506c0 22.95-11.78 41.646-26.51 42.455-.329.018-.658.039-.99.039-12.322 0-22.754-12.533-26.249-29.795a64.084 64.084 0 0 1-1.251-12.7"/>
      <path fill="#FFF"
            d="M80.783 161.816c.891 0 1.615-1.225 1.615-2.733 0-1.513-.724-2.734-1.615-2.732l-6.208-.04c-.887 0-2.196 1.224-2.196 2.737 0 1.508.693 2.83 1.58 2.832l6.824-.064zm-4.022 12.258l5.984-5.874c.773-.757 1.034-2.428.589-3.734-.443-1.304-1.433-1.756-2.202-1l-5.913 6.28c-.775.755-1.29 2.16-.843 3.472.443 1.304 1.612 1.604 2.385.856zm3.633 9.94c.769.753 1.758.304 2.204-1.002l3.727-10.942c.444-1.306.179-2.979-.59-3.732-.773-.758-1.759-.308-2.203.998l-3.728 10.945c-.445 1.305-.184 2.975.59 3.732zm6.947 1.01c.003 1.508.725 2.734 1.613 2.734.892 0 1.616-1.226 1.616-2.735v-12.637c0-1.506-.724-2.731-1.616-2.731-.888 0-1.613 1.223-1.613 2.73v12.638zm7.927-2.283c.451 1.31 1.434 1.757 2.208 1.003.768-.757 1.035-2.428.59-3.732l-3.73-10.946c-.445-1.303-1.43-1.751-2.202-1.001-.774.759-1.039 2.43-.59 3.736l3.724 10.94zm7.812-13.422l-6.46-6.32c-.77-.756-1.758-.306-2.202 1.002-.445 1.307-.181 2.98.592 3.734l6.456 6.315c.77.755 1.758.309 2.2-.999.45-1.308.185-2.98-.586-3.732zm1.183-13.508h-7.456c-.888 0-1.61 1.223-1.61 2.729 0 1.51.722 2.738 1.61 2.734h7.456c.893.004 1.616-1.223 1.616-2.734 0-1.506-.723-2.73-1.616-2.73zm-2.956-12.706l-6.46 6.32c-.77.756-1.035 2.427-.59 3.731.447 1.308 1.433 1.758 2.207 1.002l6.456-6.316c.771-.756 1.036-2.43.591-3.735-.443-1.306-1.432-1.756-2.204-1.002zM97.2 133.61c-.772-.752-1.759-.306-2.204 1.004l-3.729 10.94c-.445 1.307-.18 2.978.59 3.735.771.755 1.76.307 2.203-1.001l3.731-10.942c.445-1.309.18-2.98-.591-3.736zm-7.031 18.52c-.166.506-.07 1.14.212 1.423.279.288.644.116.808-.375.16-.5.063-1.136-.223-1.427-.28-.288-.64-.112-.797.38zm.084-19.528c0-1.51-.726-2.735-1.615-2.735-.89 0-1.613 1.226-1.613 2.735v12.636c0 1.507.722 2.732 1.613 2.732.89 0 1.615-1.225 1.615-2.732v-12.636zm-3.92 19.485c-.289.284-.379.925-.218 1.426.163.49.522.66.807.376.283-.287.376-.926.216-1.423-.163-.498-.526-.66-.805-.379zm-.283-6.263l-3.73-10.941c-.444-1.31-1.43-1.756-2.202-1.002-.772.753-1.036 2.425-.59 3.733l3.727 10.945c.445 1.305 1.432 1.751 2.203.997.772-.752 1.037-2.426.592-3.732zm-12.129-1.253c-.444 1.31-.178 2.981.593 3.74l6.455 6.315c.774.754 1.762.308 2.206-1.002.446-1.305.18-2.98-.59-3.731l-6.459-6.32c-.771-.754-1.757-.304-2.205.998zm10.996 12.057c.283.286.64.12.806-.381.162-.497.066-1.13-.214-1.421-.282-.287-.641-.118-.803.382-.162.493-.067 1.134.211 1.42zm.436 2.72c0-.57-.264-1.041-.587-1.041-.327 0-.592.47-.592 1.04 0 .574.265 1.04.592 1.04.323 0 .587-.466.587-1.04zm.56 3.012c-.158-.498-.525-.665-.807-.379-.278.291-.38.923-.214 1.416.16.502.529.668.805.381.283-.286.376-.925.216-1.418zm2.502 3.81c0 .572.26 1.04.586 1.04.327 0 .589-.468.589-1.04 0-.576-.262-1.038-.59-1.038-.324 0-.585.462-.585 1.039zm.799-14.31c0-.57-.264-1.034-.585-1.034-.33 0-.59.463-.59 1.033 0 .58.26 1.044.59 1.044.32 0 .585-.464.585-1.044zm3.523 2.77c-.16-.494-.528-.666-.806-.38-.276.29-.374.924-.214 1.417.166.5.52.67.802.39.283-.292.379-.927.218-1.426zm.715 4.052c0-.573-.265-1.04-.59-1.04-.326 0-.592.467-.592 1.04s.266 1.039.591 1.039c.326 0 .59-.466.59-1.039zm-.741 2.72c-.28-.287-.638-.116-.81.38-.16.5-.06 1.137.217 1.42.283.284.646.122.805-.379.163-.498.07-1.133-.212-1.421zm-2.22 4.164c.167.496.526.668.805.38.282-.285.378-.926.217-1.42-.164-.502-.521-.672-.807-.382-.283.286-.38.923-.214 1.422zm-3.03.332c.164-.497.066-1.135-.216-1.422-.281-.286-.64-.119-.8.376-.167.5-.07 1.136.211 1.423.287.288.648.118.804-.377zM89.153 127C98.697 127 107 141.593 107 158.466 107 175.33 98.535 189 88.993 189 79.445 189 72 175.33 72 158.467c0-16.873 7.554-31.45 17.102-31.45l.052-.017z"/>
      <path fill="#0FAC6C"
            d="M307.732 162h-8.464c-2.91 0-5.268-2.686-5.268-6.001 0-3.313 2.359-5.999 5.268-5.999h8.464c2.91 0 5.268 2.686 5.268 5.999 0 3.315-2.358 6.001-5.268 6.001M177.347 162h-10.69c-3.676 0-6.657-2.686-6.657-6.001 0-3.313 2.98-5.999 6.657-5.999h10.69c3.674 0 6.653 2.686 6.653 5.999 0 3.315-2.979 6.001-6.653 6.001"/>
      <path fill="#1E624D"
            d="M131.933 116.694c-2.192 10.09 9.058 16.063 9.058 16.063 2.736.86 1.46-1.295 1.46-1.295-7.085-5.051-6.041-10.83-4.527-14.16 2.819 4.21 10.372 12.059 28.635 15.266 1.864 1.889 4.335 2.829 6.775 2.29a6.523 6.523 0 0 0 2.502-1.164c3.529.255 7.363.354 11.531.261 0 0 5.976-9.385-16.279-19.476l-31.647.043c-7.267-.844-7.508 2.172-7.508 2.172zM160.565 113h9.703c6.223 0 14.563 5.374 18.628 12.002 4.07 6.626 2.057 11.998-4.493 11.998h-35.204c-.84 0-1.704-.091-2.578-.26-5.933-1.143-12.334-5.963-15.171-11.738-3.253-6.628-.848-12.002 5.374-12.002h23.741z"/>
      <path fill="#0FAC6C"
            d="M170.463 119.12c3.204-.735 6.486 1.978 7.337 6.051.845 4.08-1.062 7.977-4.263 8.71-3.205.732-6.486-1.979-7.336-6.056-.847-4.077 1.06-7.974 4.262-8.705"/>
      <path fill="#D1FFE5"
            d="M150.763 123.407c.71 3.419 3.463 5.695 6.146 5.083 2.684-.613 4.282-3.888 3.571-7.311-.711-3.42-3.463-5.698-6.143-5.083-2.686.616-4.284 3.89-3.574 7.31m21.173-8.362c22.929 10.605 16.118 19.92 16.118 19.92-4.122.096-7.915-.006-11.404-.267 2.593-2.008 3.916-5.987 3.056-10.119-1.1-5.297-5.357-8.82-9.512-7.87-4.158.949-6.634 6.015-5.532 11.313.462 2.22 1.482 4.122 2.813 5.52-18.062-3.29-25.687-11.256-28.475-15.576.764-1.745 1.804-2.923 1.804-2.923-.15-.017 30.985-.077 30.965-.014l.167.016z"/>
      <path fill="#0FAC6C"
            d="M154.165 117.07c2.04-.47 4.183 1.476 4.722 4.077.54 2.598-.92 5.315-2.96 5.782-2.038.467-4.25-1.417-4.792-4.018-.539-2.599.546-5.398 3.084-5.84h-.054z"/>
      <path fill="#FFF"
            d="M174.352 134.525c3.057-.743 4.749-4.33 3.942-8.472-.812-4.136-4.189-6.877-6.773-6.165-2.584.71-4.88 4.699-4.07 8.837.812 4.14 3.84 6.544 6.9 5.8zm5.456-8.958c.688 4.154-.513 8.09-2.946 10.09-.687.564-1.464.98-2.323 1.19-2.265.55-4.557-.41-6.288-2.341-1.248-1.393-2.582-3.719-3.016-5.93-1.034-5.277 1.448-10.455 5.349-11.4 3.9-.946 8.154 1.931 9.224 8.391zM151.221 124.138c.545 2.942 2.64 4.902 4.688 4.372 2.048-.527 3.266-3.34 2.723-6.28-.54-2.942-2.639-4.9-4.687-4.368-2.046.527-3.265 3.337-2.724 6.276m8.645-2.28c.674 3.663-1.29 7.31-3.837 7.967-2.548.655-4.792-.394-5.836-5.439-1.043-5.045 2.37-8.626 4.75-8.373 2.382.253 4.247 2.186 4.923 5.846z"/>
      <path fill="#1E624D"
            d="M307.468 137c-6.3 0-13.942-5.372-17.073-11.998-3.13-6.628-.816-12.002 5.167-12.002H319.041c.113.171.24.339.35.512.34.537.653 1.084.95 1.635-.08-.114-24.161-.301-24.161-.301s-11.933 7.385 8.948 19.938c0 0 .596-.07 1.604-.28 1.201.5 2.492.649 3.775.354 1.683-.386 3.077-1.475 4.06-2.98 2.375-1.107 4.942-2.619 7.382-4.675.604.329 1.254.52 1.916.537l-.07-.924c.35 3.453.226 6.91-.179 10.184h-16.148z"/>
      <path fill="#D1FFE5"
            d="M320.103 123.644c-.456-2.136.281-4.183 1.693-5.179l-.567-1.118c-1.829 1.207-2.8 3.804-2.217 6.523.445 2.08 1.687 3.723 3.213 4.526-2.53 2.063-5.19 3.579-7.65 4.69 1.426-2.113 2.013-5.05 1.367-8.071-1.11-5.178-5.403-8.622-9.592-7.693-4.187.927-6.684 5.88-5.574 11.06.757 3.535 2.999 6.26 5.678 7.338-1.045.21-1.662.28-1.662.28-21.641-12.59-9.274-20-9.274-20l24.958.188c2.92 3.954 3.524 10.648 3.524 10.648-.247.235-.488.456-.732.672-1.483-.492-2.751-1.935-3.165-3.864"/>
      <path fill="#0FAC6C"
            d="M307.464 119.12c3.202-.735 6.486 1.978 7.335 6.051.848 4.08-1.061 7.977-4.263 8.71-3.204.732-6.487-1.979-7.334-6.056-.85-4.077 1.06-7.974 4.262-8.705"/>
      <path fill="#FFF"
            d="M321.15 127.442c-1.42-.831-2.578-2.534-2.993-4.687-.543-2.815.362-5.505 2.065-6.755l.528 1.159c-1.314 1.031-2.002 3.15-1.576 5.362.385 1.997 1.566 3.491 2.948 4.001.255.095.514.166.779.19.008 0 .031.328.031.328l.068.96c-.64-.017-1.266-.217-1.85-.558"/>
      <path fill="#268165"
            d="M-2.985 32.24L66.36 32c.155.022.302.054.456.078L92.376 32c42.87 6.614 73.174 31.014 85.532 42.873-9.178-8.746-27.92-24.143-54.156-34.32 26.236 10.177 44.974 25.574 54.113 34.32L178 75H48.114C36.598 48.96 10.424 38.218-3.069 34.283c-1.897-1.133-.384-1.861.084-2.043"/>
      <path fill="#15B982"
            d="M-7 47c5.632 2.881 11.947 6.401 18 11.08l-.015 15.028h-14.95c-1.103 0-2.127.339-3.016.892L-7 47z"/>
      <path fill="#11C582"
            d="M-5 82.405l1.489.001h7.64c1.118 0 2.024-1.048 2.024-2.345 0-1.3-.906-2.353-2.025-2.353H-5v-4.79C-4.18 72.35-3.234 72-2.215 72h15.743C16.538 72 19 74.857 19 78.353v5.23C19 87.144 16.539 90 13.528 90H-2.215c-1.018 0-1.966-.341-2.785-.91v-6.685z"/>
      <path fill="#FFF"
            d="M-7 77.001L-5.398 77h8.219C4.025 77 5 78.12 5 79.504 5 80.884 4.025 82 2.82 82H-7v-4.999zM311.332 134.918c3.14-.727 5.013-4.598 4.181-8.653-.832-4.047-4.053-6.743-7.193-6.013-3.14.727-5.012 4.6-4.18 8.65.83 4.05 4.051 6.744 7.192 6.016m-9.08-5.74c-1.061-5.164 1.326-10.103 5.329-11.027 4.004-.927 8.109 2.508 9.169 7.671.618 3.013.057 5.94-1.307 8.047-.974 1.505-2.355 2.594-4.023 2.98-1.27.295-2.55.147-3.74-.353-2.56-1.076-4.705-3.792-5.428-7.318"/>
      <path fill="#11C582" d="M75 106h-5v-6h5zM69 112h-5v-6h5zM64 106h-5v-6h5zM59 112h-5v-6h5zM53 106h-5v-6h5z"/>
    </g>
  </g>
</svg>
