<svg xmlns="http://www.w3.org/2000/svg" xmlns:xlink="http://www.w3.org/1999/xlink" width="19" height="20" viewBox="0 0 19 20">
    <defs>
        <path id="a" d="M18.78 8.182H9.72v3.863h5.215c-.486 2.455-2.519 3.864-5.214 3.864-3.181 0-5.744-2.636-5.744-5.909 0-3.273 2.563-5.91 5.744-5.91 1.37 0 2.607.5 3.579 1.32l2.828-2.91C14.405.955 12.195 0 9.72 0 4.33 0 0 4.455 0 10s4.33 10 9.72 10C14.582 20 19 16.364 19 10c0-.59-.088-1.227-.22-1.818z"/>
        <path id="c" d="M18.78 8.182H9.72v3.863h5.215c-.486 2.455-2.519 3.864-5.214 3.864-3.181 0-5.744-2.636-5.744-5.909 0-3.273 2.563-5.91 5.744-5.91 1.37 0 2.607.5 3.579 1.32l2.828-2.91C14.405.955 12.195 0 9.72 0 4.33 0 0 4.455 0 10s4.33 10 9.72 10C14.582 20 19 16.364 19 10c0-.59-.088-1.227-.22-1.818z"/>
        <path id="e" d="M18.78 8.182H9.72v3.863h5.215c-.486 2.455-2.519 3.864-5.214 3.864-3.181 0-5.744-2.636-5.744-5.909 0-3.273 2.563-5.91 5.744-5.91 1.37 0 2.607.5 3.579 1.32l2.828-2.91C14.405.955 12.195 0 9.72 0 4.33 0 0 4.455 0 10s4.33 10 9.72 10C14.582 20 19 16.364 19 10c0-.59-.088-1.227-.22-1.818z"/>
        <path id="g" d="M18.78 8.182H9.72v3.863h5.215c-.486 2.455-2.519 3.864-5.214 3.864-3.181 0-5.744-2.636-5.744-5.909 0-3.273 2.563-5.91 5.744-5.91 1.37 0 2.607.5 3.579 1.32l2.828-2.91C14.405.955 12.195 0 9.72 0 4.33 0 0 4.455 0 10s4.33 10 9.72 10C14.582 20 19 16.364 19 10c0-.59-.088-1.227-.22-1.818z"/>
    </defs>
    <g fill="none" fill-rule="evenodd">
        <g>
            <mask id="b" fill="#fff">
                <use xlink:href="#a"/>
            </mask>
            <path fill="#FBBC05" fill-rule="nonzero" d="M-.884 15.91V4.09L6.628 10z" mask="url(#b)"/>
        </g>
        <g>
            <mask id="d" fill="#fff">
                <use xlink:href="#c"/>
            </mask>
            <path fill="#EA4335" fill-rule="nonzero" d="M-.884 4.09L6.628 10 9.72 7.227l10.605-1.772V-.91H-.884z" mask="url(#d)"/>
        </g>
        <g>
            <mask id="f" fill="#fff">
                <use xlink:href="#e"/>
            </mask>
            <path fill="#34A853" fill-rule="nonzero" d="M-.884 15.91L12.372 5.454l3.49.454 4.464-6.818v21.818H-.884z" mask="url(#f)"/>
        </g>
        <g>
            <mask id="h" fill="#fff">
                <use xlink:href="#g"/>
            </mask>
            <path fill="#4285F4" fill-rule="nonzero" d="M20.326 20.91L6.628 10 4.86 8.636l15.466-4.545z" mask="url(#h)"/>
        </g>
    </g>
</svg>
