<?xml version="1.0" encoding="utf-8"?>
<!-- Generator: Adobe Illustrator 22.0.1, SVG Export Plug-In . SVG Version: 6.00 Build 0)  -->
<svg version="1.1" id="Layer_1" xmlns="http://www.w3.org/2000/svg" xmlns:xlink="http://www.w3.org/1999/xlink" x="0px" y="0px"
	 viewBox="0 0 26 72" style="enable-background:new 0 0 26 72;" xml:space="preserve">
<style type="text/css">
	.st0{fill:#FFFFFF;}
</style>
<path id="Fill-1" class="st0" d="M20.2,20.9c-6,0-11.9,0-17.9,0c-1,0-1.8,0.4-2.2,1.4C0,22.4,0,22.5-0.2,22.5V25
	c5.1,0,10.1,0,15.2,0c2.6,0,5.2,0,7.8,0c1.4,0,2.2-0.8,2.2-2.2c0-0.5,0-0.9,0-1.4c0-0.4-0.1-0.5-0.5-0.5
	C23.2,20.9,21.7,20.9,20.2,20.9 M6.9,49.7c0,0.5,0,1,0,1.4c0,0.5,0.1,0.6,0.6,0.6c2.6,0,5.1,0,7.7,0s5.1,0,7.7,0
	c1.4,0,2.2-0.8,2.2-2.2c0-0.5,0-0.9,0-1.4c0-0.4-0.1-0.5-0.5-0.5c-5.2,0-10.4,0-15.6,0C7.8,47.6,7,48.4,6.9,49.7 M13.1,12.6
	c-2.6-0.8-3.9-3.7-2.8-6.3c0.6-1.4,1.8-1.8,3.3-2v1.9c0,2,0,4,0,6C13.6,12.6,13.5,12.8,13.1,12.6 M17,11.9c0-3.2,0-6.4,0-9.6
	c0-1.1-0.3-1.9-1.4-2.3c-0.4,0-1.7,0.2-2,0.2C9.5,0.6,7,3.4,6.6,6.8c-0.4,3.6,1,7.9,5.2,9.7c2.3,1,4.6,1.1,6.9,0.5
	c3-0.7,5-2.6,6.1-5.5c0.5-1.3,0.7-4.1,0.7-4.1c0.1,0,0-3.3-0.3-4.4c-0.4-1.7-1.7-2.5-3.5-1.9c-0.4,0.1-0.6,0.4-0.5,0.8
	c0.1,0.5,0.2,1,0.2,1.6c0.3,1.9,0.5,3.9-0.1,5.8c-0.5,1.8-1.7,2.9-3.4,3.4C17,12.8,17,12.7,17,11.9 M16.2,33.3
	c-0.4,0.3-0.7,0.3-1.1,0c-2.6-1.8-5.2-3.6-7.7-5.4c-0.2-0.1-0.3-0.3-0.6-0.3c0,0.9,0,1.8,0,2.8c0,1.4,0.5,2.4,1.7,3.2
	c1.3,0.8,2.7,1.7,4.1,2.6c-1.5,0.9-2.9,1.8-4.3,2.7c-0.8,0.5-1.4,1.2-1.5,2.2c-0.1,1.2,0,2.4,0,3.7c0.2-0.2,0.4-0.3,0.6-0.4
	c2.6-1.8,5.2-3.6,7.8-5.4c0.4-0.2,0.6-0.2,0.9,0c2.7,1.9,5.5,3.7,8.2,5.5c0.2,0.1,0.3,0.3,0.6,0.3c0-1,0-1.9,0-2.8
	c0-1.2-0.5-2.1-1.5-2.8c-1.1-0.7-2.1-1.4-3.2-2.1c-0.5-0.3-0.9-0.6-1.4-0.9c1.6-1,3-2,4.5-3c0.6-0.4,1.1-0.9,1.3-1.7
	c0.4-1.3,0.1-2.7,0.2-4.1c-0.3,0.2-0.5,0.3-0.7,0.4C21.6,29.7,18.9,31.5,16.2,33.3 M0.1,56.7c0,0-0.2,7.4-0.2,11.1
	c0,1.2,0,2.4,0,3.6c0,0.1-0.1,0.4,0.3,0.3h2c1-0.3,1.6-0.9,1.8-1.9c0.1-0.3,0.3-0.4,0.5-0.4s0.5,0,0.7,0c6.5,0,13,0,19.5,0
	c0.4,0,0.8,0.1,1.1-0.2v-2.6c-0.1,0-0.2-0.1-0.2-0.1c-0.4-1.2-1.3-1.5-2.5-1.5c-2.6,0-5.2,0-7.8,0c-0.5,0-0.6-0.1-0.6-0.6
	c0-2.1,0-4.3,0-6.4c0-1.4,0-1.4-1.3-1.4c-1.6,0-2.3,0.8-2.4,2.4c0,1.8,0,3.6,0,5.4c0,0.5-0.1,0.6-0.6,0.6c-2,0-4.1,0-6.1,0
	c-0.5,0-0.6-0.2-0.6-0.7c0-2.6,0-5.2,0-7.9c0-1.5,0-1.5-1.5-1.5C1.1,54.9,0.4,55.5,0.1,56.7 M1.2,4.2c0-0.4,0.3-0.4,0.5-0.4
	s0.4,0,0.6,0c0.1,0,0.4,0.1,0.4-0.2c0-0.3-0.2-0.2-0.4-0.2c-0.1,0-0.3,0-0.4,0c-0.3,0-0.8,0.2-0.7-0.5c0-0.1-0.1-0.1-0.2-0.1
	L0.9,2.9c0,0.4,0,0.9,0,1.3L1,4.3C1.2,4.4,1.2,4.3,1.2,4.2 M2.7,2.6c0-0.1-0.1-0.2-0.2-0.2c-0.4,0-0.7,0-1.2-0.1
	C1.8,2.1,2.2,2,2.5,1.9c0.1,0,0.2-0.1,0.2-0.3c0-0.2-0.1-0.2-0.2-0.3C2.2,1.2,1.8,1.1,1.3,0.9c0.5,0,0.8-0.1,1.1-0.1
	c0.1,0,0.3,0,0.3-0.2S2.5,0.5,2.4,0.5C2,0.5,1.7,0.6,1.3,0.6c-0.2,0-0.4,0-0.4,0.3c0,0.2,0.1,0.3,0.3,0.4c0.3,0.1,0.6,0.1,0.9,0.4
	C1.8,1.8,1.5,1.9,1.2,2C1,2,0.9,2.2,0.9,2.4s0.2,0.3,0.3,0.3c0.5,0,0.9,0,1.3,0C2.6,2.7,2.8,2.7,2.7,2.6"/>
</svg>
