<?xml version="1.0" encoding="utf-8"?>
<!-- Generator: Adobe Illustrator 22.0.1, SVG Export Plug-In . SVG Version: 6.00 Build 0)  -->
<svg version="1.1" id="Layer_1" xmlns="http://www.w3.org/2000/svg" xmlns:xlink="http://www.w3.org/1999/xlink" x="0px" y="0px"
	 viewBox="0 0 72 26" style="enable-background:new 0 0 72 26;" xml:space="preserve">
<style type="text/css">
	.st0{fill:#FFFFFF;}
</style>
<path id="Fill-1" class="st0" d="M50.8,20.3c0-6,0-11.9,0-17.9c0-1-0.4-1.8-1.4-2.2c-0.1-0.1-0.2-0.1-0.2-0.3h-2.5
	c0,5.1,0,10.1,0,15.2c0,2.6,0,5.2,0,7.8c0,1.4,0.8,2.2,2.2,2.2c0.5,0,0.9,0,1.4,0c0.4,0,0.5-0.1,0.5-0.5
	C50.8,23.3,50.8,21.8,50.8,20.3 M22,7c-0.5,0-1,0-1.4,0c-0.5,0-0.6,0.1-0.6,0.6c0,2.6,0,5.1,0,7.7c0,2.6,0,5.1,0,7.7
	c0,1.4,0.8,2.2,2.2,2.2c0.5,0,0.9,0,1.4,0c0.4,0,0.5-0.1,0.5-0.5c0-5.2,0-10.4,0-15.6C24.1,7.9,23.3,7.1,22,7 M59.1,13.2
	c0.8-2.6,3.7-3.9,6.3-2.8c1.4,0.6,1.8,1.8,2,3.3h-1.9c-2,0-4,0-6,0C59.1,13.7,58.9,13.6,59.1,13.2 M59.8,17.1c3.2,0,6.4,0,9.6,0
	c1.1,0,1.9-0.3,2.3-1.4c0-0.4-0.2-1.7-0.2-2c-0.4-4.1-3.2-6.6-6.6-7c-3.6-0.4-7.9,1-9.7,5.2c-1,2.3-1.1,4.6-0.5,6.9
	c0.7,3,2.6,5,5.5,6.1c1.3,0.5,4.1,0.7,4.1,0.7c0,0.1,3.3,0,4.4-0.3c1.7-0.4,2.5-1.7,1.9-3.5c-0.1-0.4-0.4-0.6-0.8-0.5
	c-0.5,0.1-1,0.2-1.6,0.2c-1.9,0.3-3.9,0.5-5.8-0.1c-1.8-0.5-2.9-1.7-3.4-3.4C58.9,17.1,59,17.1,59.8,17.1 M38.4,16.3
	c-0.3-0.4-0.3-0.7,0-1.1c1.8-2.6,3.6-5.2,5.4-7.7c0.1-0.2,0.3-0.3,0.3-0.6c-0.9,0-1.8,0-2.8,0c-1.4,0-2.4,0.5-3.2,1.7
	c-0.8,1.3-1.7,2.7-2.6,4.1c-0.9-1.5-1.8-2.9-2.7-4.3c-0.5-0.8-1.2-1.4-2.2-1.5c-1.2-0.1-2.4,0-3.7,0c0.2,0.2,0.3,0.4,0.4,0.6
	c1.8,2.6,3.6,5.2,5.4,7.8c0.2,0.4,0.2,0.6,0,0.9c-1.9,2.7-3.7,5.5-5.5,8.2c-0.1,0.2-0.3,0.3-0.3,0.6c1,0,1.9,0,2.8,0
	c1.2,0,2.1-0.5,2.8-1.5c0.7-1.1,1.4-2.1,2.1-3.2c0.3-0.5,0.6-0.9,0.9-1.4c1,1.6,2,3,3,4.5c0.4,0.6,0.9,1.1,1.7,1.3
	c1.3,0.4,2.7,0.1,4.1,0.2c-0.2-0.3-0.3-0.5-0.4-0.7C42,21.7,40.2,19,38.4,16.3 M15,0.2C15,0.2,7.6,0,3.9,0C2.7,0,1.5,0,0.3,0
	C0.2,0-0.1-0.1,0,0.3v2c0.3,1,0.9,1.6,1.9,1.8c0.3,0.1,0.4,0.3,0.4,0.5c0,0.2,0,0.5,0,0.7c0,6.5,0,13,0,19.5c0,0.4-0.1,0.8,0.2,1.1
	h2.6c0-0.1,0.1-0.2,0.1-0.2c1.2-0.4,1.5-1.3,1.5-2.5c0-2.6,0-5.2,0-7.8c0-0.5,0.1-0.6,0.6-0.6c2.1,0,4.3,0,6.4,0
	c1.4,0,1.4,0,1.4-1.3c0-1.6-0.8-2.3-2.4-2.4c-1.8,0-3.6,0-5.4,0c-0.5,0-0.6-0.1-0.6-0.6c0-2,0-4.1,0-6.1c0-0.5,0.2-0.6,0.7-0.6
	c2.6,0,5.2,0,7.9,0c1.5,0,1.5,0,1.5-1.5C16.8,1.2,16.2,0.5,15,0.2 M67.5,1.3c0.4,0,0.4,0.3,0.4,0.5c0,0.2,0,0.4,0,0.6
	c0,0.1-0.1,0.4,0.2,0.4c0.3,0,0.2-0.2,0.2-0.4c0-0.1,0-0.3,0-0.4c0-0.3-0.2-0.8,0.5-0.7c0.1,0,0.1-0.1,0.1-0.2c0,0-0.1-0.1-0.1-0.1
	c-0.4,0-0.9,0-1.3,0c0,0-0.1,0.1-0.1,0.1C67.3,1.3,67.4,1.3,67.5,1.3 M69.1,2.8c0.1,0,0.2-0.1,0.2-0.2c0-0.4,0-0.7,0.1-1.2
	c0.2,0.5,0.3,0.9,0.4,1.2c0,0.1,0.1,0.2,0.3,0.2c0.2,0,0.2-0.1,0.3-0.2c0.1-0.3,0.2-0.7,0.4-1.2c0,0.5,0.1,0.8,0.1,1.1
	c0,0.1,0,0.3,0.2,0.3c0.2,0,0.1-0.2,0.1-0.3c0-0.4-0.1-0.7-0.1-1.1c0-0.2,0-0.4-0.3-0.4c-0.2,0-0.3,0.1-0.4,0.3
	c-0.1,0.3-0.1,0.6-0.4,0.9c-0.1-0.3-0.2-0.6-0.3-0.9C69.7,1.1,69.5,1,69.3,1c-0.2,0-0.3,0.2-0.3,0.3C69,1.8,69,2.2,69,2.6
	C69,2.7,69,2.9,69.1,2.8"/>
</svg>
